<svg xmlns="http://www.w3.org/2000/svg" xmlns:xlink="http://www.w3.org/1999/xlink" width="81" height="80" viewBox="0 0 81 80">
  <defs>
    <filter id="Rectangle_72" x="0" y="0" width="81" height="80" filterUnits="userSpaceOnUse">
      <feOffset input="SourceAlpha"/>
      <feGaussianBlur stdDeviation="7" result="blur"/>
      <feFlood flood-color="#b69eff"/>
      <feComposite operator="in" in2="blur"/>
      <feComposite in="SourceGraphic"/>
    </filter>
  </defs>
  <g id="Group_40" data-name="Group 40" transform="translate(561 -2715.613)">
    <g transform="matrix(1, 0, 0, 1, -561, 2715.61)" filter="url(#Rectangle_72)">
      <rect id="Rectangle_72-2" data-name="Rectangle 72" width="39" height="38" rx="7" transform="translate(21 21)" fill="#fff"/>
    </g>
    <g id="Layer_2" data-name="Layer 2" transform="translate(-539.518 2735.982)">
      <g id="Layer_1" data-name="Layer 1" transform="translate(0 0)">
        <g id="Layer_2-2" data-name="Layer 2">
          <g id="Surfaces">
            <g id="Video_Audio_Surface" data-name="Video Audio Surface">
              <g id="Outline_no_shadow" data-name="Outline no shadow">
                <path id="Path_508" data-name="Path 508" d="M7.09,0H32.946a7.083,7.083,0,0,1,7.09,7.09V31.945a7.083,7.083,0,0,1-7.09,7.09H7.09A7.083,7.083,0,0,1,0,31.945V7.09A7.083,7.083,0,0,1,7.09,0Z" transform="translate(0 0)" fill="#00005b"/>
              </g>
            </g>
          </g>
          <g id="Outlined_Mnemonics_Logos" data-name="Outlined Mnemonics Logos" transform="translate(4.953 10.042)">
            <g id="Ae">
              <path id="Path_509" data-name="Path 509" d="M40.819,73.512H34.613l-1.268,3.937a.292.292,0,0,1-.317.234H29.892c-.184,0-.234-.1-.184-.3l5.372-15.4c.05-.167.1-.317.167-.517a5.827,5.827,0,0,0,.1-1.084.167.167,0,0,1,.133-.183H39.8c.117,0,.2.05.217.133l6.089,17.1c.05.184,0,.267-.167.267H42.454a.252.252,0,0,1-.267-.183Zm-5.238-3.32h4.237c-.1-.35-.234-.767-.384-1.2s-.3-.934-.45-1.435-.317-1.018-.484-1.535-.317-1-.45-1.485-.25-.9-.367-1.3h-.033a20.481,20.481,0,0,1-.567,2.152c-.25.8-.5,1.635-.767,2.469C36.1,68.708,35.831,69.492,35.581,70.192Z" transform="translate(-29.69 -60.2)" fill="#99f"/>
              <path id="Path_510" data-name="Path 510" d="M142.158,91.882H136.87a3.67,3.67,0,0,0,.517,1.485,2.646,2.646,0,0,0,1.218,1,5.188,5.188,0,0,0,2.135.417,10.034,10.034,0,0,0,1.735-.184,6.263,6.263,0,0,0,1.485-.384c.083-.067.133-.033.133.133V96.9a.832.832,0,0,1-.033.2.39.39,0,0,1-.117.117,7.136,7.136,0,0,1-1.668.5,11.268,11.268,0,0,1-2.369.2,7.906,7.906,0,0,1-3.2-.584,5.617,5.617,0,0,1-2.1-1.585,6.122,6.122,0,0,1-1.151-2.185,8.643,8.643,0,0,1,.067-5.088,6.808,6.808,0,0,1,1.251-2.285,6.046,6.046,0,0,1,2.018-1.585,6.3,6.3,0,0,1,2.786-.517,6.026,6.026,0,0,1,2.586.517,4.594,4.594,0,0,1,1.752,1.335,6.108,6.108,0,0,1,1,1.9,6.561,6.561,0,0,1,.317,2.035c0,.4-.017.751-.033,1.068s-.05.55-.067.7a.249.249,0,0,1-.234.217c-.1,0-.284.017-.551.033a7.9,7.9,0,0,1-.968.05C142.992,91.949,142.592,91.882,142.158,91.882Zm-5.288-2.436h3.52c.434,0,.751,0,.951-.017a.816.816,0,0,0,.384-.133V89.13a1.915,1.915,0,0,0-.1-.617,2.209,2.209,0,0,0-2.169-1.535,2.349,2.349,0,0,0-2.219,1.268,3.458,3.458,0,0,0-.367,1.2Z" transform="translate(-115.85 -80.105)" fill="#99f"/>
            </g>
          </g>
        </g>
      </g>
    </g>
  </g>
</svg>