<svg xmlns="http://www.w3.org/2000/svg" viewBox="0 0 619.79 532.23"><defs><style>.cls-1{fill:#e1dffb;}</style></defs><g id="Layer_2" data-name="Layer 2"><g id="Layer_1-2" data-name="Layer 1"><path class="cls-1" d="M207.45,241.26A4.75,4.75,0,1,0,212.2,246,4.76,4.76,0,0,0,207.45,241.26Z"/><path class="cls-1" d="M165.81,451.81a4.75,4.75,0,1,0-4.75-4.75A4.74,4.74,0,0,0,165.81,451.81Z"/><path class="cls-1" d="M207.45,201.05a4.75,4.75,0,1,0,4.75,4.75A4.76,4.76,0,0,0,207.45,201.05Z"/><path class="cls-1" d="M165.81,411.6a4.75,4.75,0,1,0-4.75-4.75A4.74,4.74,0,0,0,165.81,411.6Z"/><path class="cls-1" d="M207.45,160.84a4.75,4.75,0,1,0,4.75,4.75A4.76,4.76,0,0,0,207.45,160.84Z"/><path class="cls-1" d="M166.1,361.89a4.75,4.75,0,1,0,4.75,4.75A4.75,4.75,0,0,0,166.1,361.89Z"/><path class="cls-1" d="M166.91,241.26a4.75,4.75,0,1,0,4.75,4.75A4.75,4.75,0,0,0,166.91,241.26Z"/><path class="cls-1" d="M166.91,281.47a4.75,4.75,0,1,0,4.75,4.75A4.75,4.75,0,0,0,166.91,281.47Z"/><path class="cls-1" d="M166.1,492a4.75,4.75,0,1,0-4.75-4.75A4.75,4.75,0,0,0,166.1,492Z"/><path class="cls-1" d="M166.91,321.68a4.75,4.75,0,1,0,4.75,4.75A4.75,4.75,0,0,0,166.91,321.68Z"/><path class="cls-1" d="M85.83,120.63a4.75,4.75,0,1,0,4.75,4.75A4.75,4.75,0,0,0,85.83,120.63Z"/><path class="cls-1" d="M206.13,451.81a4.75,4.75,0,1,0-4.75-4.75A4.74,4.74,0,0,0,206.13,451.81Z"/><path class="cls-1" d="M166.91,201.05a4.75,4.75,0,1,0,4.75,4.75A4.75,4.75,0,0,0,166.91,201.05Z"/><path class="cls-1" d="M85.83,160.84a4.75,4.75,0,1,0,4.75,4.75A4.75,4.75,0,0,0,85.83,160.84Z"/><path class="cls-1" d="M85.83,201.05a4.75,4.75,0,1,0,4.75,4.75A4.75,4.75,0,0,0,85.83,201.05Z"/><path class="cls-1" d="M206.47,361.89a4.75,4.75,0,1,0,4.75,4.75A4.75,4.75,0,0,0,206.47,361.89Z"/><path class="cls-1" d="M207.45,321.68a4.75,4.75,0,1,0,4.75,4.75A4.76,4.76,0,0,0,207.45,321.68Z"/><path class="cls-1" d="M207.45,281.47a4.75,4.75,0,1,0,4.75,4.75A4.76,4.76,0,0,0,207.45,281.47Z"/><path class="cls-1" d="M206.47,492a4.75,4.75,0,1,0-4.75-4.75A4.74,4.74,0,0,0,206.47,492Z"/><path class="cls-1" d="M206.13,411.6a4.75,4.75,0,1,0-4.75-4.75A4.74,4.74,0,0,0,206.13,411.6Z"/><path class="cls-1" d="M493.42,241.26a4.75,4.75,0,1,0,4.75,4.75A4.75,4.75,0,0,0,493.42,241.26Z"/><path class="cls-1" d="M492.77,361.89a4.75,4.75,0,1,0,4.75,4.75A4.75,4.75,0,0,0,492.77,361.89Z"/><path class="cls-1" d="M493.42,80.42a4.75,4.75,0,1,0,4.75,4.75A4.75,4.75,0,0,0,493.42,80.42Z"/><path class="cls-1" d="M492.54,411.6a4.75,4.75,0,1,0-4.75-4.75A4.75,4.75,0,0,0,492.54,411.6Z"/><path class="cls-1" d="M493.42,281.47a4.75,4.75,0,1,0,4.75,4.75A4.75,4.75,0,0,0,493.42,281.47Z"/><path class="cls-1" d="M492.77,492a4.75,4.75,0,1,0-4.75-4.75A4.75,4.75,0,0,0,492.77,492Z"/><path class="cls-1" d="M493.42,321.68a4.75,4.75,0,1,0,4.75,4.75A4.75,4.75,0,0,0,493.42,321.68Z"/><path class="cls-1" d="M85.83,241.26A4.75,4.75,0,1,0,90.58,246,4.75,4.75,0,0,0,85.83,241.26Z"/><path class="cls-1" d="M493.42,120.63a4.75,4.75,0,1,0,4.75,4.75A4.75,4.75,0,0,0,493.42,120.63Z"/><path class="cls-1" d="M493.42,160.84a4.75,4.75,0,1,0,4.75,4.75A4.75,4.75,0,0,0,493.42,160.84Z"/><path class="cls-1" d="M493.42,201.05a4.75,4.75,0,1,0,4.75,4.75A4.75,4.75,0,0,0,493.42,201.05Z"/><path class="cls-1" d="M492.54,451.81a4.75,4.75,0,1,0-4.75-4.75A4.75,4.75,0,0,0,492.54,451.81Z"/><path class="cls-1" d="M126.37,281.47a4.75,4.75,0,1,0,4.75,4.75A4.75,4.75,0,0,0,126.37,281.47Z"/><path class="cls-1" d="M125.49,402.1a4.75,4.75,0,1,0,4.75,4.75A4.75,4.75,0,0,0,125.49,402.1Z"/><path class="cls-1" d="M126.37,321.68a4.75,4.75,0,1,0,4.75,4.75A4.75,4.75,0,0,0,126.37,321.68Z"/><path class="cls-1" d="M125.72,361.89a4.75,4.75,0,1,0,4.75,4.75A4.75,4.75,0,0,0,125.72,361.89Z"/><path class="cls-1" d="M121.62,125.38a4.75,4.75,0,1,0,6.82-4.25c-.74-.17-1.49-.33-2.24-.48A4.74,4.74,0,0,0,121.62,125.38Z"/><path class="cls-1" d="M125.49,451.81a4.75,4.75,0,1,0-4.75-4.75A4.74,4.74,0,0,0,125.49,451.81Z"/><path class="cls-1" d="M126.37,241.26a4.75,4.75,0,1,0,4.75,4.75A4.75,4.75,0,0,0,126.37,241.26Z"/><path class="cls-1" d="M126.37,160.84a4.75,4.75,0,1,0,4.75,4.75A4.75,4.75,0,0,0,126.37,160.84Z"/><path class="cls-1" d="M126.37,201.05a4.75,4.75,0,1,0,4.75,4.75A4.75,4.75,0,0,0,126.37,201.05Z"/><path class="cls-1" d="M166.91,160.84a4.75,4.75,0,1,0,4.75,4.75A4.75,4.75,0,0,0,166.91,160.84Z"/><path class="cls-1" d="M574.5,281.47a4.75,4.75,0,1,0,4.75,4.75A4.75,4.75,0,0,0,574.5,281.47Z"/><path class="cls-1" d="M574.5,201.05a4.75,4.75,0,1,0,4.75,4.75A4.75,4.75,0,0,0,574.5,201.05Z"/><path class="cls-1" d="M615,40.21A4.75,4.75,0,1,0,619.79,45,4.75,4.75,0,0,0,615,40.21Z"/><path class="cls-1" d="M574.5,321.68a4.75,4.75,0,1,0,4.75,4.75A4.75,4.75,0,0,0,574.5,321.68Z"/><path class="cls-1" d="M573.52,361.89a4.75,4.75,0,1,0,4.76,4.75A4.75,4.75,0,0,0,573.52,361.89Z"/><path class="cls-1" d="M574.5,241.26a4.75,4.75,0,1,0,4.75,4.75A4.75,4.75,0,0,0,574.5,241.26Z"/><path class="cls-1" d="M574.5,80.42a4.75,4.75,0,1,0,4.75,4.75A4.75,4.75,0,0,0,574.5,80.42Z"/><path class="cls-1" d="M574.5,160.84a4.75,4.75,0,1,0,4.75,4.75A4.75,4.75,0,0,0,574.5,160.84Z"/><path class="cls-1" d="M574.5,40.21A4.75,4.75,0,1,0,579.25,45,4.75,4.75,0,0,0,574.5,40.21Z"/><path class="cls-1" d="M574.5,120.63a4.75,4.75,0,1,0,4.75,4.75A4.75,4.75,0,0,0,574.5,120.63Z"/><path class="cls-1" d="M615,321.68a4.75,4.75,0,1,0,4.75,4.75A4.75,4.75,0,0,0,615,321.68Z"/><path class="cls-1" d="M615,281.47a4.75,4.75,0,1,0,4.75,4.75A4.75,4.75,0,0,0,615,281.47Z"/><path class="cls-1" d="M615,120.63a4.75,4.75,0,1,0,4.75,4.75A4.75,4.75,0,0,0,615,120.63Z"/><path class="cls-1" d="M615,241.26a4.75,4.75,0,1,0,4.75,4.75A4.75,4.75,0,0,0,615,241.26Z"/><path class="cls-1" d="M615,160.84a4.75,4.75,0,1,0,4.75,4.75A4.75,4.75,0,0,0,615,160.84Z"/><path class="cls-1" d="M615,80.42a4.75,4.75,0,1,0,4.75,4.75A4.75,4.75,0,0,0,615,80.42Z"/><path class="cls-1" d="M615,201.05a4.75,4.75,0,1,0,4.75,4.75A4.75,4.75,0,0,0,615,201.05Z"/><path class="cls-1" d="M4.75,281.47a4.75,4.75,0,1,0,4.75,4.75A4.75,4.75,0,0,0,4.75,281.47Z"/><path class="cls-1" d="M4.75,331.18A4.75,4.75,0,1,0,0,326.43,4.75,4.75,0,0,0,4.75,331.18Z"/><path class="cls-1" d="M4.75,201.05A4.75,4.75,0,1,0,9.5,205.8,4.75,4.75,0,0,0,4.75,201.05Z"/><path class="cls-1" d="M4.75,241.26A4.75,4.75,0,1,0,9.5,246,4.75,4.75,0,0,0,4.75,241.26Z"/><path class="cls-1" d="M85.83,281.47a4.75,4.75,0,1,0,4.75,4.75A4.75,4.75,0,0,0,85.83,281.47Z"/><path class="cls-1" d="M85.83,321.68a4.75,4.75,0,1,0,4.75,4.75A4.75,4.75,0,0,0,85.83,321.68Z"/><path class="cls-1" d="M89.92,447.06a4.75,4.75,0,1,0-9,2l3.42,2.64a4.91,4.91,0,0,0,.86.08A4.74,4.74,0,0,0,89.92,447.06Z"/><path class="cls-1" d="M85.17,402.1a4.75,4.75,0,1,0,4.75,4.75A4.75,4.75,0,0,0,85.17,402.1Z"/><path class="cls-1" d="M85.34,361.89a4.75,4.75,0,1,0,4.75,4.75A4.75,4.75,0,0,0,85.34,361.89Z"/><path class="cls-1" d="M45.29,160.84A4.75,4.75,0,1,0,50,165.59,4.75,4.75,0,0,0,45.29,160.84Z"/><path class="cls-1" d="M45,361.89a4.75,4.75,0,1,0,4.75,4.75A4.76,4.76,0,0,0,45,361.89Z"/><path class="cls-1" d="M573.19,411.6a4.75,4.75,0,1,0-4.75-4.75A4.75,4.75,0,0,0,573.19,411.6Z"/><path class="cls-1" d="M613.9,361.89a4.75,4.75,0,1,0,2.87,8.52c.63-1.32,1.25-2.63,1.86-4A4.73,4.73,0,0,0,613.9,361.89Z"/><path class="cls-1" d="M44.85,402.1a4.75,4.75,0,1,0,4.75,4.75A4.75,4.75,0,0,0,44.85,402.1Z"/><path class="cls-1" d="M45.29,321.68A4.75,4.75,0,1,0,50,326.43,4.75,4.75,0,0,0,45.29,321.68Z"/><path class="cls-1" d="M45.29,241.26A4.75,4.75,0,1,0,50,246,4.75,4.75,0,0,0,45.29,241.26Z"/><path class="cls-1" d="M45.29,201.05A4.75,4.75,0,1,0,50,205.8,4.75,4.75,0,0,0,45.29,201.05Z"/><path class="cls-1" d="M45.29,281.47A4.75,4.75,0,1,0,50,286.22,4.75,4.75,0,0,0,45.29,281.47Z"/><path class="cls-1" d="M371.8,281.47a4.75,4.75,0,1,0,4.75,4.75A4.75,4.75,0,0,0,371.8,281.47Z"/><path class="cls-1" d="M288.52,241.26a4.75,4.75,0,1,0,4.75,4.75A4.75,4.75,0,0,0,288.52,241.26Z"/><path class="cls-1" d="M246.85,361.89a4.75,4.75,0,1,0,4.75,4.75A4.75,4.75,0,0,0,246.85,361.89Z"/><path class="cls-1" d="M288.52,281.47a4.75,4.75,0,1,0,4.75,4.75A4.75,4.75,0,0,0,288.52,281.47Z"/><path class="cls-1" d="M287.23,361.89a4.75,4.75,0,1,0,4.75,4.75A4.75,4.75,0,0,0,287.23,361.89Z"/><path class="cls-1" d="M288.52,321.68a4.75,4.75,0,1,0,4.75,4.75A4.75,4.75,0,0,0,288.52,321.68Z"/><path class="cls-1" d="M288.52,160.84a4.75,4.75,0,1,0,4.75,4.75A4.75,4.75,0,0,0,288.52,160.84Z"/><path class="cls-1" d="M246.45,411.6a4.75,4.75,0,1,0-4.75-4.75A4.74,4.74,0,0,0,246.45,411.6Z"/><path class="cls-1" d="M246.85,492a4.75,4.75,0,1,0-4.75-4.75A4.75,4.75,0,0,0,246.85,492Z"/><path class="cls-1" d="M246.45,451.81a4.75,4.75,0,1,0-4.75-4.75A4.74,4.74,0,0,0,246.45,451.81Z"/><path class="cls-1" d="M493.42,40.21A4.75,4.75,0,1,0,498.17,45,4.75,4.75,0,0,0,493.42,40.21Z"/><path class="cls-1" d="M331.26,361.89a4.75,4.75,0,1,0,4.75,4.75A4.75,4.75,0,0,0,331.26,361.89Z"/><path class="cls-1" d="M287.23,482.52a4.75,4.75,0,1,0,4.75,4.75A4.75,4.75,0,0,0,287.23,482.52Z"/><path class="cls-1" d="M331.26,201.05A4.75,4.75,0,1,0,336,205.8,4.75,4.75,0,0,0,331.26,201.05Z"/><path class="cls-1" d="M331.26,160.84a4.75,4.75,0,1,0,4.75,4.75A4.75,4.75,0,0,0,331.26,160.84Z"/><path class="cls-1" d="M331.26,281.47a4.75,4.75,0,1,0,4.75,4.75A4.75,4.75,0,0,0,331.26,281.47Z"/><path class="cls-1" d="M331.26,321.68a4.75,4.75,0,1,0,4.75,4.75A4.75,4.75,0,0,0,331.26,321.68Z"/><path class="cls-1" d="M331.26,241.26A4.75,4.75,0,1,0,336,246,4.75,4.75,0,0,0,331.26,241.26Z"/><path class="cls-1" d="M331.26,120.63a4.75,4.75,0,1,0,4.75,4.75A4.75,4.75,0,0,0,331.26,120.63Z"/><path class="cls-1" d="M286.77,411.6a4.75,4.75,0,1,0-4.75-4.75A4.74,4.74,0,0,0,286.77,411.6Z"/><path class="cls-1" d="M286.77,451.81a4.75,4.75,0,1,0-4.75-4.75A4.74,4.74,0,0,0,286.77,451.81Z"/><path class="cls-1" d="M288.52,201.05a4.75,4.75,0,1,0,4.75,4.75A4.75,4.75,0,0,0,288.52,201.05Z"/><path class="cls-1" d="M534,80.42a4.75,4.75,0,1,0,4.75,4.75A4.75,4.75,0,0,0,534,80.42Z"/><path class="cls-1" d="M534,241.26a4.75,4.75,0,1,0,4.75,4.75A4.75,4.75,0,0,0,534,241.26Z"/><path class="cls-1" d="M534,201.05a4.75,4.75,0,1,0,4.75,4.75A4.75,4.75,0,0,0,534,201.05Z"/><path class="cls-1" d="M534,160.84a4.75,4.75,0,1,0,4.75,4.75A4.75,4.75,0,0,0,534,160.84Z"/><path class="cls-1" d="M534,40.21A4.75,4.75,0,1,0,538.71,45,4.75,4.75,0,0,0,534,40.21Z"/><path class="cls-1" d="M534,120.63a4.75,4.75,0,1,0,4.75,4.75A4.75,4.75,0,0,0,534,120.63Z"/><path class="cls-1" d="M534,0a4.75,4.75,0,1,0,4.75,4.75A4.75,4.75,0,0,0,534,0Z"/><path class="cls-1" d="M532.87,451.81a4.75,4.75,0,1,0-4.76-4.75A4.75,4.75,0,0,0,532.87,451.81Z"/><path class="cls-1" d="M534,281.47a4.75,4.75,0,1,0,4.75,4.75A4.75,4.75,0,0,0,534,281.47Z"/><path class="cls-1" d="M248,241.26a4.75,4.75,0,1,0,4.75,4.75A4.75,4.75,0,0,0,248,241.26Z"/><path class="cls-1" d="M248,201.05a4.75,4.75,0,1,0,4.75,4.75A4.75,4.75,0,0,0,248,201.05Z"/><path class="cls-1" d="M248,281.47a4.75,4.75,0,1,0,4.75,4.75A4.75,4.75,0,0,0,248,281.47Z"/><path class="cls-1" d="M248,160.84a4.75,4.75,0,1,0,4.75,4.75A4.75,4.75,0,0,0,248,160.84Z"/><path class="cls-1" d="M248,321.68a4.75,4.75,0,1,0,4.75,4.75A4.75,4.75,0,0,0,248,321.68Z"/><path class="cls-1" d="M331.26,522.73a4.75,4.75,0,1,0,4.75,4.75A4.75,4.75,0,0,0,331.26,522.73Z"/><path class="cls-1" d="M534,321.68a4.75,4.75,0,1,0,4.75,4.75A4.75,4.75,0,0,0,534,321.68Z"/><path class="cls-1" d="M532.87,402.1a4.75,4.75,0,1,0,4.75,4.75A4.76,4.76,0,0,0,532.87,402.1Z"/><path class="cls-1" d="M533.15,361.89a4.75,4.75,0,1,0,4.75,4.75A4.75,4.75,0,0,0,533.15,361.89Z"/><path class="cls-1" d="M286.77,522.73a4.75,4.75,0,1,0,4.75,4.75A4.75,4.75,0,0,0,286.77,522.73Z"/><path class="cls-1" d="M452.88,40.21A4.75,4.75,0,1,0,457.63,45,4.75,4.75,0,0,0,452.88,40.21Z"/><path class="cls-1" d="M411.9,451.81a4.75,4.75,0,1,0-4.75-4.75A4.74,4.74,0,0,0,411.9,451.81Z"/><path class="cls-1" d="M452.88,120.63a4.75,4.75,0,1,0,4.75,4.75A4.75,4.75,0,0,0,452.88,120.63Z"/><path class="cls-1" d="M452.88,80.42a4.75,4.75,0,1,0,4.75,4.75A4.75,4.75,0,0,0,452.88,80.42Z"/><path class="cls-1" d="M411.9,411.6a4.75,4.75,0,1,0-4.75-4.75A4.74,4.74,0,0,0,411.9,411.6Z"/><path class="cls-1" d="M411.9,522.73a4.75,4.75,0,1,0,4.75,4.75A4.75,4.75,0,0,0,411.9,522.73Z"/><path class="cls-1" d="M412,361.89a4.75,4.75,0,1,0,4.75,4.75A4.75,4.75,0,0,0,412,361.89Z"/><path class="cls-1" d="M412,482.52a4.75,4.75,0,1,0,4.75,4.75A4.75,4.75,0,0,0,412,482.52Z"/><path class="cls-1" d="M452.88,160.84a4.75,4.75,0,1,0,4.75,4.75A4.75,4.75,0,0,0,452.88,160.84Z"/><path class="cls-1" d="M412.34,321.68a4.75,4.75,0,1,0,4.75,4.75A4.75,4.75,0,0,0,412.34,321.68Z"/><path class="cls-1" d="M452.22,411.6a4.75,4.75,0,1,0-4.75-4.75A4.74,4.74,0,0,0,452.22,411.6Z"/><path class="cls-1" d="M452.22,451.81a4.75,4.75,0,1,0-4.75-4.75A4.74,4.74,0,0,0,452.22,451.81Z"/><path class="cls-1" d="M493.42,0a4.75,4.75,0,1,0,4.75,4.75A4.75,4.75,0,0,0,493.42,0Z"/><path class="cls-1" d="M452.39,492a4.75,4.75,0,1,0-4.75-4.75A4.74,4.74,0,0,0,452.39,492Z"/><path class="cls-1" d="M452.88,321.68a4.75,4.75,0,1,0,4.75,4.75A4.75,4.75,0,0,0,452.88,321.68Z"/><path class="cls-1" d="M452.88,241.26a4.75,4.75,0,1,0,4.75,4.75A4.75,4.75,0,0,0,452.88,241.26Z"/><path class="cls-1" d="M452.39,361.89a4.75,4.75,0,1,0,4.75,4.75A4.75,4.75,0,0,0,452.39,361.89Z"/><path class="cls-1" d="M452.88,281.47a4.75,4.75,0,1,0,4.75,4.75A4.75,4.75,0,0,0,452.88,281.47Z"/><path class="cls-1" d="M452.88,201.05a4.75,4.75,0,1,0,4.75,4.75A4.75,4.75,0,0,0,452.88,201.05Z"/><path class="cls-1" d="M371.8,321.68a4.75,4.75,0,1,0,4.75,4.75A4.75,4.75,0,0,0,371.8,321.68Z"/><path class="cls-1" d="M371.8,241.26a4.75,4.75,0,1,0,4.75,4.75A4.75,4.75,0,0,0,371.8,241.26Z"/><path class="cls-1" d="M371.58,522.73a4.75,4.75,0,1,0,4.75,4.75A4.75,4.75,0,0,0,371.58,522.73Z"/><path class="cls-1" d="M371.8,160.84a4.75,4.75,0,1,0,4.75,4.75A4.75,4.75,0,0,0,371.8,160.84Z"/><path class="cls-1" d="M331.26,402.1a4.75,4.75,0,1,0,4.75,4.75A4.75,4.75,0,0,0,331.26,402.1Z"/><path class="cls-1" d="M371.64,361.89a4.75,4.75,0,1,0,4.75,4.75A4.75,4.75,0,0,0,371.64,361.89Z"/><path class="cls-1" d="M371.8,201.05a4.75,4.75,0,1,0,4.75,4.75A4.75,4.75,0,0,0,371.8,201.05Z"/><path class="cls-1" d="M331.26,482.52a4.75,4.75,0,1,0,4.75,4.75A4.75,4.75,0,0,0,331.26,482.52Z"/><path class="cls-1" d="M331.26,442.31a4.75,4.75,0,1,0,4.75,4.75A4.75,4.75,0,0,0,331.26,442.31Z"/><path class="cls-1" d="M371.8,120.63a4.75,4.75,0,1,0,4.75,4.75A4.75,4.75,0,0,0,371.8,120.63Z"/><path class="cls-1" d="M371.8,80.42a4.75,4.75,0,1,0,4.75,4.75A4.75,4.75,0,0,0,371.8,80.42Z"/><path class="cls-1" d="M412.34,120.63a4.75,4.75,0,1,0,4.75,4.75A4.75,4.75,0,0,0,412.34,120.63Z"/><path class="cls-1" d="M371.64,482.52a4.75,4.75,0,1,0,4.75,4.75A4.75,4.75,0,0,0,371.64,482.52Z"/><path class="cls-1" d="M412.34,201.05a4.75,4.75,0,1,0,4.75,4.75A4.75,4.75,0,0,0,412.34,201.05Z"/><path class="cls-1" d="M412.34,160.84a4.75,4.75,0,1,0,4.75,4.75A4.75,4.75,0,0,0,412.34,160.84Z"/><path class="cls-1" d="M412.34,241.26a4.75,4.75,0,1,0,4.75,4.75A4.75,4.75,0,0,0,412.34,241.26Z"/><path class="cls-1" d="M412.34,281.47a4.75,4.75,0,1,0,4.75,4.75A4.75,4.75,0,0,0,412.34,281.47Z"/><path class="cls-1" d="M371.58,411.6a4.75,4.75,0,1,0-4.75-4.75A4.74,4.74,0,0,0,371.58,411.6Z"/><path class="cls-1" d="M371.58,451.81a4.75,4.75,0,1,0-4.75-4.75A4.74,4.74,0,0,0,371.58,451.81Z"/><path class="cls-1" d="M412.34,80.42a4.75,4.75,0,1,0,4.75,4.75A4.75,4.75,0,0,0,412.34,80.42Z"/><path class="cls-1" d="M412.34,40.21A4.75,4.75,0,1,0,417.09,45,4.75,4.75,0,0,0,412.34,40.21Z"/></g></g></svg>