<svg xmlns="http://www.w3.org/2000/svg" viewBox="0 0 268.11 201.41"><defs><style>.cls-1{fill:#c8c7e0;}</style></defs><g id="Layer_2" data-name="Layer 2"><g id="Layer_1-2" data-name="Layer 1"><circle class="cls-1" cx="3.82" cy="3.82" r="3.82"/><circle class="cls-1" cx="36.25" cy="3.82" r="3.82"/><circle class="cls-1" cx="68.69" cy="3.82" r="3.82"/><circle class="cls-1" cx="101.12" cy="3.82" r="3.82"/><circle class="cls-1" cx="133.56" cy="3.82" r="3.82"/><circle class="cls-1" cx="166" cy="3.82" r="3.82"/><circle class="cls-1" cx="198.43" cy="3.82" r="3.82"/><circle class="cls-1" cx="230.87" cy="3.82" r="3.82"/><circle class="cls-1" cx="3.82" cy="36.11" r="3.82"/><circle class="cls-1" cx="36.38" cy="36.11" r="3.82"/><circle class="cls-1" cx="68.94" cy="36.11" r="3.82"/><circle class="cls-1" cx="101.5" cy="36.11" r="3.82"/><circle class="cls-1" cx="134.06" cy="36.11" r="3.82"/><circle class="cls-1" cx="166.62" cy="36.11" r="3.82"/><circle class="cls-1" cx="199.18" cy="36.11" r="3.82"/><circle class="cls-1" cx="231.74" cy="36.11" r="3.82"/><circle class="cls-1" cx="264.3" cy="36.11" r="3.82"/><circle class="cls-1" cx="3.82" cy="68.41" r="3.82"/><circle class="cls-1" cx="36.25" cy="68.41" r="3.82"/><circle class="cls-1" cx="68.68" cy="68.41" r="3.82"/><circle class="cls-1" cx="101.11" cy="68.41" r="3.82"/><circle class="cls-1" cx="133.54" cy="68.41" r="3.82"/><circle class="cls-1" cx="165.97" cy="68.41" r="3.82"/><circle class="cls-1" cx="198.4" cy="68.41" r="3.82"/><circle class="cls-1" cx="230.83" cy="68.41" r="3.82"/><circle class="cls-1" cx="263.26" cy="68.41" r="3.82"/><circle class="cls-1" cx="3.82" cy="100.7" r="3.82"/><circle class="cls-1" cx="36.2" cy="100.7" r="3.82"/><circle class="cls-1" cx="68.58" cy="100.7" r="3.82"/><circle class="cls-1" cx="100.97" cy="100.7" r="3.82"/><circle class="cls-1" cx="133.35" cy="100.7" r="3.82"/><circle class="cls-1" cx="165.74" cy="100.7" r="3.82"/><circle class="cls-1" cx="198.12" cy="100.7" r="3.82"/><circle class="cls-1" cx="230.51" cy="100.7" r="3.82"/><circle class="cls-1" cx="262.89" cy="100.7" r="3.82"/><circle class="cls-1" cx="3.82" cy="133" r="3.82"/><circle class="cls-1" cx="36.2" cy="133" r="3.82"/><circle class="cls-1" cx="68.58" cy="133" r="3.82"/><circle class="cls-1" cx="100.97" cy="133" r="3.82"/><circle class="cls-1" cx="133.35" cy="133" r="3.82"/><circle class="cls-1" cx="165.74" cy="133" r="3.82"/><circle class="cls-1" cx="198.12" cy="133" r="3.82"/><circle class="cls-1" cx="230.51" cy="133" r="3.82"/><circle class="cls-1" cx="262.89" cy="133" r="3.82"/><circle class="cls-1" cx="3.82" cy="165.3" r="3.82"/><circle class="cls-1" cx="36.25" cy="165.3" r="3.82"/><circle class="cls-1" cx="68.68" cy="165.3" r="3.82"/><circle class="cls-1" cx="101.11" cy="165.3" r="3.82"/><circle class="cls-1" cx="133.54" cy="165.3" r="3.82"/><circle class="cls-1" cx="165.97" cy="165.3" r="3.82"/><circle class="cls-1" cx="198.4" cy="165.3" r="3.82"/><circle class="cls-1" cx="230.83" cy="165.3" r="3.82"/><circle class="cls-1" cx="263.26" cy="165.3" r="3.82"/><circle class="cls-1" cx="3.82" cy="197.59" r="3.82"/><circle class="cls-1" cx="36.2" cy="197.59" r="3.82"/><circle class="cls-1" cx="68.58" cy="197.59" r="3.82"/><circle class="cls-1" cx="100.97" cy="197.59" r="3.82"/><circle class="cls-1" cx="133.35" cy="197.59" r="3.82"/><circle class="cls-1" cx="165.74" cy="197.59" r="3.82"/><circle class="cls-1" cx="198.12" cy="197.59" r="3.82"/><circle class="cls-1" cx="230.51" cy="197.59" r="3.82"/><circle class="cls-1" cx="262.89" cy="197.59" r="3.82"/></g></g></svg>