<svg xmlns="http://www.w3.org/2000/svg" xmlns:xlink="http://www.w3.org/1999/xlink" viewBox="0 0 1358.95 935.92"><defs><style>.cls-1{fill:none;}.cls-2{isolation:isolate;}.cls-3{fill:#632cf8;}.cls-4{fill:#fe9083;}.cls-5{fill:url(#Áåçûìÿííûé_ãðàäèåíò_354);}.cls-116,.cls-23,.cls-24,.cls-25,.cls-26,.cls-27,.cls-28,.cls-29,.cls-30,.cls-31,.cls-33,.cls-35,.cls-36,.cls-37,.cls-38,.cls-39,.cls-41,.cls-42,.cls-43,.cls-44,.cls-6,.cls-65,.cls-77,.cls-78,.cls-8,.cls-90{opacity:0.5;}.cls-116,.cls-14,.cls-17,.cls-19,.cls-22,.cls-23,.cls-24,.cls-25,.cls-26,.cls-27,.cls-28,.cls-29,.cls-30,.cls-31,.cls-32,.cls-33,.cls-34,.cls-35,.cls-36,.cls-37,.cls-38,.cls-39,.cls-40,.cls-41,.cls-42,.cls-43,.cls-44,.cls-48,.cls-6,.cls-60,.cls-63,.cls-64,.cls-65,.cls-69,.cls-70,.cls-8,.cls-81,.cls-82,.cls-83,.cls-88,.cls-89,.cls-93,.cls-94,.cls-95,.cls-96,.cls-97,.cls-98{mix-blend-mode:multiply;}.cls-6{fill:url(#Áåçûìÿííûé_ãðàäèåíò_70);}.cls-7{fill:url(#Áåçûìÿííûé_ãðàäèåíò_26);}.cls-8{fill:url(#Áåçûìÿííûé_ãðàäèåíò_70-2);}.cls-9{fill:url(#Áåçûìÿííûé_ãðàäèåíò_178);}.cls-10{fill:url(#Áåçûìÿííûé_ãðàäèåíò_55);}.cls-11{fill:#cb4d7a;}.cls-12{fill:#ee8183;}.cls-13{fill:url(#Áåçûìÿííûé_ãðàäèåíò_71);}.cls-14,.cls-19,.cls-48,.cls-60,.cls-63,.cls-64,.cls-91,.cls-93{opacity:0.6;}.cls-14{fill:url(#Áåçûìÿííûé_ãðàäèåíò_48);}.cls-15{fill:url(#Áåçûìÿííûé_ãðàäèåíò_71-2);}.cls-16{fill:#e28183;}.cls-17,.cls-22{opacity:0.91;}.cls-17{fill:url(#Áåçûìÿííûé_ãðàäèåíò_73);}.cls-18{fill:url(#Áåçûìÿííûé_ãðàäèåíò_71-3);}.cls-19{fill:url(#Áåçûìÿííûé_ãðàäèåíò_48-2);}.cls-20{fill:url(#Áåçûìÿííûé_ãðàäèåíò_64);}.cls-21{fill:url(#Áåçûìÿííûé_ãðàäèåíò_64-2);}.cls-22{fill:url(#Áåçûìÿííûé_ãðàäèåíò_73-2);}.cls-23{fill:url(#Áåçûìÿííûé_ãðàäèåíò_70-3);}.cls-24{fill:url(#Áåçûìÿííûé_ãðàäèåíò_70-4);}.cls-25{fill:url(#Áåçûìÿííûé_ãðàäèåíò_4);}.cls-26{fill:url(#Áåçûìÿííûé_ãðàäèåíò_4-2);}.cls-27{fill:url(#Áåçûìÿííûé_ãðàäèåíò_4-3);}.cls-28{fill:url(#Áåçûìÿííûé_ãðàäèåíò_4-4);}.cls-29{fill:url(#Áåçûìÿííûé_ãðàäèåíò_4-5);}.cls-30{fill:url(#Áåçûìÿííûé_ãðàäèåíò_4-6);}.cls-31{fill:url(#Áåçûìÿííûé_ãðàäèåíò_4-7);}.cls-32,.cls-81,.cls-82,.cls-83{opacity:0.76;}.cls-32{fill:url(#Áåçûìÿííûé_ãðàäèåíò_70-5);}.cls-33{fill:url(#Áåçûìÿííûé_ãðàäèåíò_70-6);}.cls-34,.cls-40,.cls-94,.cls-95,.cls-96,.cls-97{opacity:0.3;}.cls-34{fill:url(#Áåçûìÿííûé_ãðàäèåíò_70-7);}.cls-35{fill:url(#Áåçûìÿííûé_ãðàäèåíò_4-8);}.cls-36{fill:url(#Áåçûìÿííûé_ãðàäèåíò_70-8);}.cls-37{fill:url(#Áåçûìÿííûé_ãðàäèåíò_4-9);}.cls-38{fill:url(#Áåçûìÿííûé_ãðàäèåíò_4-10);}.cls-39{fill:url(#Áåçûìÿííûé_ãðàäèåíò_70-9);}.cls-40{fill:url(#Áåçûìÿííûé_ãðàäèåíò_70-10);}.cls-41{fill:url(#Áåçûìÿííûé_ãðàäèåíò_70-11);}.cls-42{fill:url(#Áåçûìÿííûé_ãðàäèåíò_70-12);}.cls-43{fill:url(#Áåçûìÿííûé_ãðàäèåíò_70-13);}.cls-44{fill:#7a4ac0;}.cls-45{fill:url(#Áåçûìÿííûé_ãðàäèåíò_71-4);}.cls-46{fill:url(#Áåçûìÿííûé_ãðàäèåíò_71-5);}.cls-47{fill:url(#Áåçûìÿííûé_ãðàäèåíò_387);}.cls-48{fill:url(#Áåçûìÿííûé_ãðàäèåíò_48-3);}.cls-49{fill:#38368e;}.cls-50{fill:url(#Áåçûìÿííûé_ãðàäèåíò_59);}.cls-51{fill:url(#Áåçûìÿííûé_ãðàäèåíò_184);}.cls-52{fill:#ffebed;}.cls-53{fill:#7f9ec9;}.cls-54{fill:#131163;}.cls-55{fill:#fff;}.cls-56{fill:#c6659c;}.cls-57{fill:#cb5f7d;}.cls-58{fill:#9f4a8b;}.cls-59{fill:#ffbcaf;}.cls-60{fill:url(#Áåçûìÿííûé_ãðàäèåíò_48-4);}.cls-61{fill:url(#Áåçûìÿííûé_ãðàäèåíò_292);}.cls-62{fill:#d2726c;}.cls-63{fill:url(#Áåçûìÿííûé_ãðàäèåíò_35);}.cls-64{fill:url(#Áåçûìÿííûé_ãðàäèåíò_52);}.cls-65{fill:url(#Áåçûìÿííûé_ãðàäèåíò_397);}.cls-66{fill:url(#Áåçûìÿííûé_ãðàäèåíò_141);}.cls-67{fill:url(#Áåçûìÿííûé_ãðàäèåíò_141-2);}.cls-68{fill:url(#Áåçûìÿííûé_ãðàäèåíò_141-3);}.cls-69,.cls-70{opacity:0.8;}.cls-69{fill:url(#Áåçûìÿííûé_ãðàäèåíò_285);}.cls-70{fill:url(#Áåçûìÿííûé_ãðàäèåíò_285-2);}.cls-71{fill:#34c7ff;}.cls-72{fill:url(#Áåçûìÿííûé_ãðàäèåíò_141-4);}.cls-73{fill:url(#Áåçûìÿííûé_ãðàäèåíò_141-5);}.cls-74{fill:url(#Áåçûìÿííûé_ãðàäèåíò_141-6);}.cls-75{clip-path:url(#clip-path);}.cls-76{fill:url(#Áåçûìÿííûé_ãðàäèåíò_74);}.cls-77,.cls-78,.cls-90{mix-blend-mode:screen;}.cls-77{fill:url(#Áåçûìÿííûé_ãðàäèåíò_83);}.cls-78{fill:url(#Áåçûìÿííûé_ãðàäèåíò_83-2);}.cls-79{fill:url(#Áåçûìÿííûé_ãðàäèåíò_26-2);}.cls-80{fill:url(#Áåçûìÿííûé_ãðàäèåíò_26-3);}.cls-81{fill:url(#Áåçûìÿííûé_ãðàäèåíò_70-14);}.cls-82{fill:url(#Áåçûìÿííûé_ãðàäèåíò_70-15);}.cls-83{fill:url(#Áåçûìÿííûé_ãðàäèåíò_70-16);}.cls-84{fill:url(#Áåçûìÿííûé_ãðàäèåíò_29);}.cls-85{fill:url(#Áåçûìÿííûé_ãðàäèåíò_28);}.cls-86{fill:#e5e2ff;}.cls-87{fill:url(#Áåçûìÿííûé_ãðàäèåíò_28-2);}.cls-88,.cls-89{opacity:0.62;}.cls-88{fill:url(#Áåçûìÿííûé_ãðàäèåíò_27);}.cls-89{fill:url(#Áåçûìÿííûé_ãðàäèåíò_94);}.cls-90{fill:url(#Áåçûìÿííûé_ãðàäèåíò_95);}.cls-91{fill:#3ab8ef;}.cls-92{fill:#744ca2;}.cls-93{fill:url(#Áåçûìÿííûé_ãðàäèåíò_89);}.cls-94{fill:url(#Áåçûìÿííûé_ãðàäèåíò_85);}.cls-95{fill:url(#Áåçûìÿííûé_ãðàäèåíò_85-2);}.cls-96{fill:url(#Áåçûìÿííûé_ãðàäèåíò_85-3);}.cls-97{fill:url(#Áåçûìÿííûé_ãðàäèåíò_85-4);}.cls-98{fill:#d1d4fb;}.cls-117,.cls-99{mix-blend-mode:soft-light;}.cls-100{fill:#e0ffff;}.cls-101{fill:url(#Áåçûìÿííûé_ãðàäèåíò_65);}.cls-102{fill:url(#Áåçûìÿííûé_ãðàäèåíò_14);}.cls-103{opacity:0.81;fill:url(#Áåçûìÿííûé_ãðàäèåíò_115);}.cls-104{fill:#473da2;}.cls-105{fill:url(#Áåçûìÿííûé_ãðàäèåíò_302);}.cls-106{fill:url(#Áåçûìÿííûé_ãðàäèåíò_302-2);}.cls-107{fill:url(#Áåçûìÿííûé_ãðàäèåíò_322);}.cls-108{fill:url(#Áåçûìÿííûé_ãðàäèåíò_25);}.cls-109{fill:url(#Áåçûìÿííûé_ãðàäèåíò_25-2);}.cls-110,.cls-112{opacity:0.73;}.cls-110{fill:url(#Áåçûìÿííûé_ãðàäèåíò_97);}.cls-111{fill:#953da2;}.cls-112{fill:url(#Áåçûìÿííûé_ãðàäèåíò_97-2);}.cls-113,.cls-114,.cls-115,.cls-116,.cls-117{fill-rule:evenodd;}.cls-113{fill:url(#Áåçûìÿííûé_ãðàäèåíò_206);}.cls-114{fill:url(#Áåçûìÿííûé_ãðàäèåíò_206-2);}.cls-115{fill:url(#Áåçûìÿííûé_ãðàäèåíò_107);}.cls-116{fill:#601734;}.cls-117{fill:#b3d9ff;}.cls-118{fill:#6877ff;}.cls-119{fill:#4f31e0;}</style><linearGradient id="Áåçûìÿííûé_ãðàäèåíò_354" x1="642.2" y1="399.64" x2="642.2" y2="318.99" gradientUnits="userSpaceOnUse"><stop offset="0" stop-color="#d5cdf8"/><stop offset="1" stop-color="#f3edfb"/></linearGradient><linearGradient id="Áåçûìÿííûé_ãðàäèåíò_70" x1="600.68" y1="359.24" x2="683.72" y2="359.24" gradientUnits="userSpaceOnUse"><stop offset="0" stop-color="#ccf"/><stop offset="1" stop-color="#755cbb"/></linearGradient><linearGradient id="Áåçûìÿííûé_ãðàäèåíò_26" x1="618.45" y1="721.89" x2="618.45" y2="315.48" gradientUnits="userSpaceOnUse"><stop offset="0" stop-color="#9e8cef"/><stop offset="1" stop-color="#caafee"/></linearGradient><linearGradient id="Áåçûìÿííûé_ãðàäèåíò_70-2" x1="449.79" y1="468.64" x2="548.77" y2="468.64" xlink:href="#Áåçûìÿííûé_ãðàäèåíò_70"/><linearGradient id="Áåçûìÿííûé_ãðàäèåíò_178" x1="446.73" y1="582.47" x2="446.73" y2="392.42" gradientUnits="userSpaceOnUse"><stop offset="0" stop-color="#9e8cef"/><stop offset="1" stop-color="#dac7f3"/></linearGradient><linearGradient id="Áåçûìÿííûé_ãðàäèåíò_55" x1="773.54" y1="527.69" x2="901.06" y2="527.69" gradientUnits="userSpaceOnUse"><stop offset="0" stop-color="#a999f1"/><stop offset="1" stop-color="#dac7f3"/></linearGradient><linearGradient id="Áåçûìÿííûé_ãðàäèåíò_71" x1="405.25" y1="366.51" x2="405.25" y2="316.39" gradientUnits="userSpaceOnUse"><stop offset="0.02" stop-color="#ffc2a9"/><stop offset="1" stop-color="#ff9595"/></linearGradient><linearGradient id="Áåçûìÿííûé_ãðàäèåíò_48" x1="436.8" y1="365.32" x2="436.8" y2="282.37" gradientUnits="userSpaceOnUse"><stop offset="0" stop-color="#ffeadb"/><stop offset="0.99" stop-color="#c27cb6"/></linearGradient><linearGradient id="Áåçûìÿííûé_ãðàäèåíò_71-2" x1="434.11" y1="421.75" x2="434.11" y2="293.87" xlink:href="#Áåçûìÿííûé_ãðàäèåíò_71"/><linearGradient id="Áåçûìÿííûé_ãðàäèåíò_73" x1="411.24" y1="401.79" x2="451.45" y2="401.79" gradientUnits="userSpaceOnUse"><stop offset="0.02" stop-color="#d1a1d6"/><stop offset="0.99" stop-color="#bd89c4"/></linearGradient><linearGradient id="Áåçûìÿííûé_ãðàäèåíò_71-3" x1="903.69" y1="499.64" x2="903.69" y2="328.64" xlink:href="#Áåçûìÿííûé_ãðàäèåíò_71"/><linearGradient id="Áåçûìÿííûé_ãðàäèåíò_48-2" x1="923.89" y1="444.85" x2="923.89" y2="359.9" xlink:href="#Áåçûìÿííûé_ãðàäèåíò_48"/><linearGradient id="Áåçûìÿííûé_ãðàäèåíò_64" x1="940.66" y1="415.53" x2="940.66" y2="377.44" gradientUnits="userSpaceOnUse"><stop offset="0" stop-color="#ffb0b0"/><stop offset="0.98" stop-color="#ffc2a9"/></linearGradient><linearGradient id="Áåçûìÿííûé_ãðàäèåíò_64-2" x1="962.74" y1="421.39" x2="962.74" y2="400.51" xlink:href="#Áåçûìÿííûé_ãðàäèåíò_64"/><linearGradient id="Áåçûìÿííûé_ãðàäèåíò_73-2" x1="873.42" y1="463.02" x2="912.26" y2="463.02" xlink:href="#Áåçûìÿííûé_ãðàäèåíò_73"/><linearGradient id="Áåçûìÿííûé_ãðàäèåíò_70-3" x1="819.36" y1="597.08" x2="819.36" y2="405.67" xlink:href="#Áåçûìÿííûé_ãðàäèåíò_70"/><linearGradient id="Áåçûìÿííûé_ãðàäèåíò_70-4" x1="397.92" y1="558.52" x2="718.07" y2="558.52" xlink:href="#Áåçûìÿííûé_ãðàäèåíò_70"/><linearGradient id="Áåçûìÿííûé_ãðàäèåíò_4" x1="680.17" y1="504.94" x2="741.36" y2="504.94" gradientUnits="userSpaceOnUse"><stop offset="0" stop-color="#ccedff"/><stop offset="1" stop-color="#755cbb"/></linearGradient><linearGradient id="Áåçûìÿííûé_ãðàäèåíò_4-2" x1="624.66" y1="612.34" x2="714.59" y2="612.34" xlink:href="#Áåçûìÿííûé_ãðàäèåíò_4"/><linearGradient id="Áåçûìÿííûé_ãðàäèåíò_4-3" x1="628.83" y1="653" x2="724.91" y2="653" xlink:href="#Áåçûìÿííûé_ãðàäèåíò_4"/><linearGradient id="Áåçûìÿííûé_ãðàäèåíò_4-4" x1="546.14" y1="552.32" x2="546.14" y2="444.49" xlink:href="#Áåçûìÿííûé_ãðàäèåíò_4"/><linearGradient id="Áåçûìÿííûé_ãðàäèåíò_4-5" x1="554.82" y1="561.39" x2="554.82" y2="479.65" xlink:href="#Áåçûìÿííûé_ãðàäèåíò_4"/><linearGradient id="Áåçûìÿííûé_ãðàäèåíò_4-6" x1="425.63" y1="456.9" x2="425.63" y2="395.14" xlink:href="#Áåçûìÿííûé_ãðàäèåíò_4"/><linearGradient id="Áåçûìÿííûé_ãðàäèåíò_4-7" x1="475.61" y1="402.51" x2="500.5" y2="402.51" xlink:href="#Áåçûìÿííûé_ãðàäèåíò_4"/><linearGradient id="Áåçûìÿííûé_ãðàäèåíò_70-5" x1="746.17" y1="552.32" x2="746.17" y2="437.85" xlink:href="#Áåçûìÿííûé_ãðàäèåíò_70"/><linearGradient id="Áåçûìÿííûé_ãðàäèåíò_70-6" x1="874.86" y1="527.7" x2="874.86" y2="467.89" xlink:href="#Áåçûìÿííûé_ãðàäèåíò_70"/><linearGradient id="Áåçûìÿííûé_ãðàäèåíò_70-7" x1="807.03" y1="525.03" x2="807.03" y2="479.3" xlink:href="#Áåçûìÿííûé_ãðàäèåíò_70"/><linearGradient id="Áåçûìÿííûé_ãðàäèåíò_4-8" x1="412.71" y1="460.84" x2="412.71" y2="443.86" xlink:href="#Áåçûìÿííûé_ãðàäèåíò_4"/><linearGradient id="Áåçûìÿííûé_ãðàäèåíò_70-8" x1="458.07" y1="512.61" x2="458.07" y2="419.8" xlink:href="#Áåçûìÿííûé_ãðàäèåíò_70"/><linearGradient id="Áåçûìÿííûé_ãðàäèåíò_4-9" x1="696.85" y1="447.29" x2="696.85" y2="377.44" xlink:href="#Áåçûìÿííûé_ãðàäèåíò_4"/><linearGradient id="Áåçûìÿííûé_ãðàäèåíò_4-10" x1="605.35" y1="437.84" x2="605.35" y2="341.45" xlink:href="#Áåçûìÿííûé_ãðàäèåíò_4"/><linearGradient id="Áåçûìÿííûé_ãðàäèåíò_70-9" x1="586.68" y1="362.57" x2="691.46" y2="362.57" xlink:href="#Áåçûìÿííûé_ãðàäèåíò_70"/><linearGradient id="Áåçûìÿííûé_ãðàäèåíò_70-10" x1="856.03" y1="520.88" x2="856.03" y2="460.25" xlink:href="#Áåçûìÿííûé_ãðàäèåíò_70"/><linearGradient id="Áåçûìÿííûé_ãðàäèåíò_70-11" x1="770.32" y1="589.29" x2="770.32" y2="405.67" xlink:href="#Áåçûìÿííûé_ãðàäèåíò_70"/><linearGradient id="Áåçûìÿííûé_ãðàäèåíò_70-12" x1="572.91" y1="675.53" x2="572.91" y2="622.9" xlink:href="#Áåçûìÿííûé_ãðàäèåíò_70"/><linearGradient id="Áåçûìÿííûé_ãðàäèåíò_70-13" x1="675.16" y1="661.07" x2="675.16" y2="635.51" xlink:href="#Áåçûìÿííûé_ãðàäèåíò_70"/><linearGradient id="Áåçûìÿííûé_ãðàäèåíò_71-4" x1="674.03" y1="332.52" x2="674.03" y2="157.65" xlink:href="#Áåçûìÿííûé_ãðàäèåíò_71"/><linearGradient id="Áåçûìÿííûé_ãðàäèåíò_71-5" x1="608.84" y1="261.95" x2="608.84" y2="210.4" xlink:href="#Áåçûìÿííûé_ãðàäèåíò_71"/><linearGradient id="Áåçûìÿííûé_ãðàäèåíò_387" x1="698.34" y1="281.45" x2="700.5" y2="270.2" gradientUnits="userSpaceOnUse"><stop offset="0" stop-color="#e1616a"/><stop offset="1" stop-color="#ff8883"/></linearGradient><linearGradient id="Áåçûìÿííûé_ãðàäèåíò_48-3" x1="678.83" y1="272.84" x2="678.83" y2="160.19" xlink:href="#Áåçûìÿííûé_ãðàäèåíò_48"/><linearGradient id="Áåçûìÿííûé_ãðàäèåíò_59" x1="673.34" y1="226.71" x2="673.34" y2="204.39" gradientUnits="userSpaceOnUse"><stop offset="0" stop-color="#cf6074"/><stop offset="1" stop-color="#f37270"/></linearGradient><linearGradient id="Áåçûìÿííûé_ãðàäèåíò_184" x1="717.85" y1="233.79" x2="717.85" y2="214.37" gradientUnits="userSpaceOnUse"><stop offset="0" stop-color="#cf6074"/><stop offset="1" stop-color="#ff817f"/></linearGradient><linearGradient id="Áåçûìÿííûé_ãðàäèåíò_48-4" x1="719.67" y1="245.09" x2="719.67" y2="201.39" xlink:href="#Áåçûìÿííûé_ãðàäèåíò_48"/><linearGradient id="Áåçûìÿííûé_ãðàäèåíò_292" x1="676.38" y1="334.72" x2="676.38" y2="122.65" gradientUnits="userSpaceOnUse"><stop offset="0" stop-color="#2e33a0"/><stop offset="1" stop-color="#0665a5"/></linearGradient><linearGradient id="Áåçûìÿííûé_ãðàäèåíò_35" x1="732.08" y1="201.17" x2="732.08" y2="152.25" gradientUnits="userSpaceOnUse"><stop offset="0" stop-color="#ffeadb"/><stop offset="0.99" stop-color="#8860c7"/></linearGradient><linearGradient id="Áåçûìÿííûé_ãðàäèåíò_52" x1="665.41" y1="334.72" x2="665.41" y2="122.65" gradientUnits="userSpaceOnUse"><stop offset="0" stop-color="#ccc2db"/><stop offset="0.99" stop-color="#8860c7"/></linearGradient><linearGradient id="Áåçûìÿííûé_ãðàäèåíò_397" x1="679.63" y1="334.67" x2="679.63" y2="325.55" gradientUnits="userSpaceOnUse"><stop offset="0" stop-color="#776d7e"/><stop offset="1" stop-color="#9d68c2"/></linearGradient><linearGradient id="Áåçûìÿííûé_ãðàäèåíò_141" x1="706.37" y1="137.87" x2="706.37" y2="131.1" gradientUnits="userSpaceOnUse"><stop offset="0" stop-color="#1f77d1"/><stop offset="1" stop-color="#0686c9"/></linearGradient><linearGradient id="Áåçûìÿííûé_ãðàäèåíò_141-2" x1="663.24" y1="160.15" x2="663.24" y2="140.14" xlink:href="#Áåçûìÿííûé_ãðàäèåíò_141"/><linearGradient id="Áåçûìÿííûé_ãðàäèåíò_141-3" x1="735.77" y1="170.3" x2="735.77" y2="152.25" xlink:href="#Áåçûìÿííûé_ãðàäèåíò_141"/><linearGradient id="Áåçûìÿííûé_ãðàäèåíò_285" x1="616.35" y1="249.73" x2="593.26" y2="221.44" gradientUnits="userSpaceOnUse"><stop offset="0" stop-color="#ffeadb"/><stop offset="0.99" stop-color="#b060f4"/></linearGradient><linearGradient id="Áåçûìÿííûé_ãðàäèåíò_285-2" x1="618.77" y1="246.09" x2="607.41" y2="232.17" xlink:href="#Áåçûìÿííûé_ãðàäèåíò_285"/><linearGradient id="Áåçûìÿííûé_ãðàäèåíò_141-4" x1="661.91" y1="161.94" x2="701.01" y2="161.94" xlink:href="#Áåçûìÿííûé_ãðàäèåíò_141"/><linearGradient id="Áåçûìÿííûé_ãðàäèåíò_141-5" x1="717.07" y1="278.9" x2="728.93" y2="278.9" xlink:href="#Áåçûìÿííûé_ãðàäèåíò_141"/><linearGradient id="Áåçûìÿííûé_ãðàäèåíò_141-6" x1="702.42" y1="270.08" x2="715.22" y2="270.08" xlink:href="#Áåçûìÿííûé_ãðàäèåíò_141"/><clipPath id="clip-path"><path class="cls-1" d="M216.39,430.77c5-15.2,33.79-96.48,108.43-126.5,87.47-35.19,133.35,42.11,232.67,18.07,65.85-15.94,84.68-28.65,194.27-144.57,60.1-63.59,144.25-73.17,179.17-58.31,122,51.9,127.68,183.34,121.26,327.12-2.17,48.84-22,333.55-250.74,429.2-227.9,95.27-474.38-76-555.69-237.19C227.81,603,186.53,521.19,216.39,430.77Z"/></clipPath><linearGradient id="Áåçûìÿííûé_ãðàäèåíò_74" x1="634.85" y1="905.97" x2="634.85" y2="703.91" gradientUnits="userSpaceOnUse"><stop offset="0" stop-color="#6456c0"/><stop offset="1" stop-color="#5f2c95"/></linearGradient><radialGradient id="Áåçûìÿííûé_ãðàäèåíò_83" cx="-1040.35" cy="948.26" r="61.22" gradientTransform="matrix(0, 0.66, -1.71, 0, 2161.27, 1523.23)" gradientUnits="userSpaceOnUse"><stop offset="0" stop-color="#4b474b"/><stop offset="1"/></radialGradient><radialGradient id="Áåçûìÿííûé_ãðàäèåíò_83-2" cx="-1419.19" cy="-226.92" r="61.21" gradientTransform="matrix(0.66, 0, 0, 1.71, 1666.12, 1221.03)" xlink:href="#Áåçûìÿííûé_ãðàäèåíò_83"/><linearGradient id="Áåçûìÿííûé_ãðàäèåíò_26-2" x1="569.46" y1="835.03" x2="622.45" y2="835.03" xlink:href="#Áåçûìÿííûé_ãðàäèåíò_26"/><linearGradient id="Áåçûìÿííûé_ãðàäèåíò_26-3" x1="8651.85" y1="835.03" x2="8704.85" y2="835.03" gradientTransform="matrix(-1, 0, 0, 1, 9345.15, 0)" xlink:href="#Áåçûìÿííûé_ãðàäèåíò_26"/><linearGradient id="Áåçûìÿííûé_ãðàäèåíò_70-14" x1="627.74" y1="905.97" x2="627.74" y2="703.91" xlink:href="#Áåçûìÿííûé_ãðàäèåíò_70"/><linearGradient id="Áåçûìÿííûé_ãðàäèåíò_70-15" x1="651.27" y1="804.94" x2="651.27" y2="749.83" xlink:href="#Áåçûìÿííûé_ãðàäèåíò_70"/><linearGradient id="Áåçûìÿííûé_ãðàäèåíò_70-16" x1="587.44" y1="784.67" x2="587.44" y2="730.68" xlink:href="#Áåçûìÿííûé_ãðàäèåíò_70"/><linearGradient id="Áåçûìÿííûé_ãðàäèåíò_29" x1="398.49" y1="-1243.24" x2="398.49" y2="-1404.48" gradientTransform="matrix(0.91, -0.42, 0.42, 0.91, 546.04, 1847.43)" gradientUnits="userSpaceOnUse"><stop offset="0" stop-color="#dbccff"/><stop offset="1" stop-color="#d1bbff"/></linearGradient><linearGradient id="Áåçûìÿííûé_ãðàäèåíò_28" x1="398.48" y1="-1236.95" x2="398.48" y2="-1398.19" gradientTransform="matrix(0.91, -0.42, 0.42, 0.91, 546.04, 1847.43)" gradientUnits="userSpaceOnUse"><stop offset="0" stop-color="#b5a6e7"/><stop offset="1" stop-color="#7760bf"/></linearGradient><linearGradient id="Áåçûìÿííûé_ãðàäèåíò_28-2" x1="398.48" y1="-1277.04" x2="398.48" y2="-1345" xlink:href="#Áåçûìÿííûé_ãðàäèåíò_28"/><linearGradient id="Áåçûìÿííûé_ãðàäèåíò_27" x1="388.83" y1="-1343.64" x2="408.12" y2="-1343.64" gradientTransform="matrix(0.91, -0.42, 0.42, 0.91, 546.04, 1847.43)" gradientUnits="userSpaceOnUse"><stop offset="0" stop-color="#8b8be0"/><stop offset="1" stop-color="#a177b7"/></linearGradient><linearGradient id="Áåçûìÿííûé_ãðàäèåíò_94" x1="398.48" y1="-1339.16" x2="398.48" y2="-1350.84" gradientTransform="matrix(0.91, -0.42, 0.42, 0.91, 546.04, 1847.43)" gradientUnits="userSpaceOnUse"><stop offset="0" stop-color="#fff"/><stop offset="1" stop-color="#a177b7"/></linearGradient><linearGradient id="Áåçûìÿííûé_ãðàäèåíò_95" x1="408.68" y1="-1270.1" x2="408.68" y2="-1345.02" gradientTransform="matrix(0.91, -0.42, 0.42, 0.91, 546.04, 1847.43)" gradientUnits="userSpaceOnUse"><stop offset="0"/><stop offset="1" stop-color="#fff"/></linearGradient><linearGradient id="Áåçûìÿííûé_ãðàäèåíò_89" x1="796.79" y1="301.11" x2="1197.81" y2="301.11" gradientUnits="userSpaceOnUse"><stop offset="0" stop-color="#9d68c2"/><stop offset="1" stop-color="#aec2ff"/></linearGradient><linearGradient id="Áåçûìÿííûé_ãðàäèåíò_85" x1="878.37" y1="452.57" x2="878.37" y2="331.62" gradientUnits="userSpaceOnUse"><stop offset="0" stop-color="#ccedff"/><stop offset="1" stop-color="#9d68c2"/></linearGradient><linearGradient id="Áåçûìÿííûé_ãðàäèåíò_85-2" x1="1084.61" y1="393.6" x2="1084.61" y2="340.33" xlink:href="#Áåçûìÿííûé_ãðàäèåíò_85"/><linearGradient id="Áåçûìÿííûé_ãðàäèåíò_85-3" x1="1147.47" y1="393.6" x2="1147.47" y2="340.33" xlink:href="#Áåçûìÿííûé_ãðàäèåíò_85"/><linearGradient id="Áåçûìÿííûé_ãðàäèåíò_85-4" x1="1020.7" y1="393.6" x2="1020.7" y2="340.33" xlink:href="#Áåçûìÿííûé_ãðàäèåíò_85"/><linearGradient id="Áåçûìÿííûé_ãðàäèåíò_65" x1="447.7" y1="262.7" x2="447.7" y2="206.93" gradientUnits="userSpaceOnUse"><stop offset="0" stop-color="#d93de3"/><stop offset="1" stop-color="#ff6dba"/></linearGradient><linearGradient id="Áåçûìÿííûé_ãðàäèåíò_14" x1="481.79" y1="262.7" x2="481.79" y2="206.93" gradientUnits="userSpaceOnUse"><stop offset="0" stop-color="#a242ea"/><stop offset="1" stop-color="#fe117e"/></linearGradient><linearGradient id="Áåçûìÿííûé_ãðàäèåíò_115" x1="438.02" y1="850.18" x2="468.18" y2="610.07" gradientUnits="userSpaceOnUse"><stop offset="0" stop-color="#067eff"/><stop offset="1" stop-color="#3e37a0"/></linearGradient><linearGradient id="Áåçûìÿííûé_ãðàäèåíò_302" x1="1142.08" y1="256.63" x2="1142.08" y2="236.39" gradientUnits="userSpaceOnUse"><stop offset="0" stop-color="#459fff"/><stop offset="1" stop-color="#a96dff"/></linearGradient><linearGradient id="Áåçûìÿííûé_ãðàäèåíò_302-2" x1="190.83" y1="493.84" x2="190.83" y2="468.64" xlink:href="#Áåçûìÿííûé_ãðàäèåíò_302"/><linearGradient id="Áåçûìÿííûé_ãðàäèåíò_322" x1="1171.81" y1="256.63" x2="1171.81" y2="236.39" gradientUnits="userSpaceOnUse"><stop offset="0" stop-color="#b31a8f"/><stop offset="1" stop-color="#fe117e"/></linearGradient><linearGradient id="Áåçûìÿííûé_ãðàäèåíò_25" x1="998.51" y1="639.08" x2="998.51" y2="624.76" gradientUnits="userSpaceOnUse"><stop offset="0" stop-color="#8642a0"/><stop offset="1" stop-color="#6456c0"/></linearGradient><linearGradient id="Áåçûìÿííûé_ãðàäèåíò_25-2" x1="254.44" y1="709.67" x2="254.44" y2="696.88" xlink:href="#Áåçûìÿííûé_ãðàäèåíò_25"/><linearGradient id="Áåçûìÿííûé_ãðàäèåíò_97" x1="308.13" y1="640.45" x2="308.13" y2="534.77" gradientUnits="userSpaceOnUse"><stop offset="0" stop-color="#d906e3"/><stop offset="1" stop-color="#ff6df9"/></linearGradient><linearGradient id="Áåçûìÿííûé_ãðàäèåíò_97-2" x1="1037.86" y1="790.05" x2="1037.86" y2="657.84" xlink:href="#Áåçûìÿííûé_ãðàäèåíò_97"/><linearGradient id="Áåçûìÿííûé_ãðàäèåíò_206" x1="1255.43" y1="1649.05" x2="1244.16" y2="1552.36" gradientTransform="matrix(0.97, 0.26, -0.26, 0.97, 82.83, -1202.61)" gradientUnits="userSpaceOnUse"><stop offset="0" stop-color="#1852a0"/><stop offset="1" stop-color="#067ed3"/></linearGradient><linearGradient id="Áåçûìÿííûé_ãðàäèåíò_206-2" x1="1244.51" y1="1649.41" x2="1244.51" y2="1550.34" xlink:href="#Áåçûìÿííûé_ãðàäèåíò_206"/><linearGradient id="Áåçûìÿííûé_ãðàäèåíò_107" x1="1348" y1="1140.9" x2="1340.71" y2="1078.35" gradientTransform="matrix(0.94, 0.33, -0.52, 1.49, 164.83, -1430.31)" gradientUnits="userSpaceOnUse"><stop offset="0" stop-color="#188dc1"/><stop offset="1" stop-color="#06bfe7"/></linearGradient></defs><g class="cls-2"><g id="Layer_2" data-name="Layer 2"><g id="Layer_1-2" data-name="Layer 1"><path class="cls-3" d="M216.38,432.32c5-15.2,33.78-96.48,108.43-126.5,87.47-35.19,133.34,42.11,232.67,18.07,65.85-15.94,84.68-28.65,194.26-144.57C811.85,115.73,896,106.15,930.92,121c122,51.91,127.68,183.34,121.26,327.12-2.18,48.84-22,333.55-250.74,429.2-227.9,95.27-474.39-76-555.7-237.19C227.8,604.57,186.52,522.74,216.38,432.32Z"/><path class="cls-4" d="M682.78,338.94c.14,1,.25,1.5.25,1.5a130.39,130.39,0,0,1-3.76,12.82,104.09,104.09,0,0,1-14.11,27.45,53.76,53.76,0,0,1-6.16,7.2c-33-10.37-49.33-42.69-55.58-58.77a.68.68,0,0,1-.09-.25c-1.2-3-2-5.48-2.49-7.07v0c-.39-1.27-.57-2-.57-2,.14-.27.27-.57.41-.84l.07-.11c.54-1.14,1.08-2.29,1.58-3.4a161,161,0,0,0,9.06-25.3c1.61-5.93,2.47-10.51,2.88-12.93.2-1.25.29-1.93.29-1.93l15.4,8.13L683,311.54A87.24,87.24,0,0,0,681.9,325c0,2.83,0,5.37.2,7.52.16,2.63.43,4.71.64,6.07v0A1.67,1.67,0,0,0,682.78,338.94Z"/><path class="cls-5" d="M668.06,391.47a45.9,45.9,0,0,1-11,8l-.27.15-.32-.18,0,0c-1.16-.7-5.1-3.13-10.4-7.11-13.86-10.44-37-31.55-43.62-60a.54.54,0,0,1-.05-.11,70.44,70.44,0,0,1-1.58-10.4v0c-.07-.93-.14-1.86-.16-2.81a146.43,146.43,0,0,0,12.57,22.47c9.38,13.72,23.44,28.7,40.25,28.79,14.54.09,22-9.86,25.77-19a51.93,51.93,0,0,0,3.06-10.42.06.06,0,0,0,0,0c.16-.82.27-1.54.39-2.16v0c0-.31.09-.59.11-.84.14-1,.18-1.6.18-1.6S688.6,370.93,668.06,391.47Z"/><path class="cls-6" d="M668.06,391.47a45.9,45.9,0,0,1-11,8h-.27l-.32,0,0,0c-1.16-.7-5.1-3.13-10.4-7.11-13.86-10.44-37-31.55-43.62-60a.54.54,0,0,1-.05-.11,70.44,70.44,0,0,1-1.58-10.4v0c-.07-.93-.14-1.86-.16-2.81a146.43,146.43,0,0,0,12.57,22.47s9.15,25.14,28.94,37.6c9.92,6.22,17.44,5.32,23,1.65s9.11-10,11.21-14.81a34.71,34.71,0,0,0,2.9-12.64q0-1.12,0-2a51.93,51.93,0,0,0,3.06-10.42.06.06,0,0,0,0,0c.16-.82.27-1.54.39-2.16v0c0-.31.09-.59.11-.84.14-1,.18-1.6.18-1.6S688.6,370.93,668.06,391.47Z"/><path class="cls-7" d="M795.26,596.87l-.37.18c-1.85.23-7.63-1-15.19-7.58l0,0s0,0-.06-.06-.05-.07-.09-.09c-6.35-5.55-14-14.82-21.54-30-15.18-30.33-19.53-50.58-20.23-54.11l-.09-.54-8.86,14c-6,18-17.37,92.75-17.16,96s10.08,18.89,9.87,20.82a.06.06,0,0,1,0,0c-.27,2-4.71,6.23-6,10.9-.86,3.1,5.16,12.88,9.4,20.2v0c2.2,3.81,3.89,6.93,3.89,8.11,0,3.42-10.73,20.16-10.73,20.16v9l-.16.16-.5.45-.41.34c-4.07,3.22-21.35,13.75-75.35,16.65-64,3.42-106.61-17.17-106.61-17.17l3.22-8.81s-3-2.56-3.22-3.85,2.36-4.3,2.36-4.3S531,684,531,679.66s12.89-17.58,12.46-29-10.3-21.45-11.6-27.88,16.74-22.31,16.74-22.31c-15.44-48.93-18.46-114.59-18.46-114.59l-3-3.44s-18.46,42.06-35.19,62.65c-2,2.45-4.1,4.87-6.28,7.2a181.49,181.49,0,0,1-14.4,13.93c-11.6,10.1-22.13,16.74-24.8,16.22-4.31-.86-21.47-34.77-20.68-69.53.36-16.54,10.33-35,20.68-49.88,1.11-1.58,2.22-3.15,3.35-4.66A237.14,237.14,0,0,1,467.55,437c1.31-1.4,2.06-2.15,2.06-2.15s-2.36-7.59-4-14.18a2.66,2.66,0,0,0-.11-.47.93.93,0,0,0,0-.23,1.66,1.66,0,0,0-.05-.16c-.95-4.05-1.54-7.56-1-8.42,1.43-2.29,9.74-4.87,11.17-6.57s7.43-30.62,12-33.77c4.4-3,12.12-5.21,37.87-15.34,1.27-.49,2.56-1,3.92-1.54,28.88-11.43,57.21-25.32,57.21-25.32l10.87-13.36h4.85l-1.58,3.4-.07.11c.77,3.44,1.65,6.75,2.65,9.9a.68.68,0,0,0,.09.25c15,47.15,53.41,62.35,53.41,62.35,26.72-19.73,26.2-51.05,26.2-51.05v-4.3l5,1.49,3.42,8.15s5.79,9,28.76,19.12a135.55,135.55,0,0,1,12.62,6.46c21,11.93,44.39,30.39,46.18,34.31a13.28,13.28,0,0,1,.61,1.95v0c2.47,9.69,7.54,46,12.25,59,3,8.08,7.59,12.54,11,14.85,0,0,0,0,.05,0a17.08,17.08,0,0,0,4.39,2.28q.54,3,1,5.91C818.2,551.78,799.47,593.93,795.26,596.87Z"/><path class="cls-8" d="M548.77,479.64l-18.67,6.27-3-3.44s-18.46,42.06-35.19,62.65c-2,2.45-4.1,4.87-6.28,7.2a181.49,181.49,0,0,1-14.4,13.93L457,504.94l-7.22-46.54A237.14,237.14,0,0,1,467.55,437c1.31-1.4,2.06-2.15,2.06-2.15s-2.36-7.59-4-14.18a2.66,2.66,0,0,0-.11-.47.93.93,0,0,0,0-.23,1.66,1.66,0,0,0-.05-.16c-.95-4.05-1.54-7.56-1-8.42,1.43-2.29,9.74-4.87,11.17-6.57s7.43-30.62,12-33.77c0,0-3,27.74,12.89,62.94l7.72,10.87L530.83,463S539.41,474.41,548.77,479.64Z"/><path class="cls-9" d="M494.77,529.83c-4,29.74-48.33,52.64-48.33,52.64-9.88,0-20.91-17.17-30.92-38.35s-10.62-82-11.14-85.77-6.12-11.28-6.46-14.49,9-9.88,9-9.88l-.07-.16-.07-.16c-1-2.08-6.45-13.84-6.07-16,.43-2.35,10.92-7.49,10.92-7.49l.66,11.57s24.41-4.62,32.68-23.53l1.45-5.8,4.07,2.72V420s.84,3.87,2.13,3.87,10.81-4.75,12.8-4.1,4,14,6.66,15.68,9.74,6.65,10.8,9c.48,1.06.52,4.89.57,9.4.07,5.53.11,12.05.93,15.72C485.91,476.24,498.78,500.07,494.77,529.83Z"/><path class="cls-10" d="M900.17,504.35c-2,3.15-12,9.74-14.59,12.32s0,11,0,11c-42.06,44.64-85.91,67-90.32,69.17l-.37.18c-26.4-17.75-24.14-47-15.37-71.63,8.38-23.65,22.74-43.06,23.37-43.9l0,0,0,0c.47-.19,8-3.31,13.4-3.72a8.2,8.2,0,0,1,5,1.54c3.22,2,5.94,5.14,8.57,3.83,3.87-1.95,12.52-22.4,18.39-23,4.1-.38,9.78,3.79,13.56,6.16,1.66,1.05,2.95,1.75,3.58,1.57,2.15-.57,9.45-9.31,10-9.54s3.89,2.2,3.89,2.2l-2.33,2.9a79.26,79.26,0,0,0,15.31,34.47l7.86-11.51S902.18,501.2,900.17,504.35Z"/><path class="cls-11" d="M682.89,338.06c0,.3-.09.59-.11.88a17.12,17.12,0,0,1-.43,1.82.06.06,0,0,1,0,0c-2.7,10-13.59,20.2-27.34,15.29-15-5.37-43.6-65.91-43.6-65.91l2.88-12.93,67.83,55.26.75,5.23Z"/><path class="cls-12" d="M457,327s-4.15-22.89-2.29-39.76-.48-36.05-.48-36.05-4.09-1.72-7.1,0-10,19.17-6.86,33.18S441,332,441,332h-4.72L426,317.83l-5-1.43s-28.82,27.18-28.39,43.34l3.77,14.38,35.5-1.22L455,346.44Z"/><path class="cls-13" d="M421,316.4s.75,18,4.79,33.47c0,0-.67,6.33-8.08,6.76l-1.82-2s-1.29,7.19-7.83,7.72l-6.22-6.22,1.61,5.15s-2.26,5.47-8.16,5.26c0,0-9.87-7.73-10.51-17.81l9.76-8.26V334.1L406.09,326l.21-4.62S413.1,316.29,421,316.4Z"/><path class="cls-14" d="M455.14,282.37s-1.74,4.42-4.21,6.13-9.61,3-9.61,3L441,332h-4.72L426,317.83s5.22,8.08,5.54,14.16l-4.07,2-3.54-12.12-1.68,8.72,1.67,10.86S430,336.2,441,336l1.67,3s-20,16.56-24.61,26.32c0,0,9.87-12.55,32.4-26.39l2.15-6.65,2.85-15.88S452.8,293.51,455.14,282.37Z"/><path class="cls-15" d="M471.9,352.87c-1.86,5.58-21.32,28.75-23.47,33.77A68.17,68.17,0,0,0,445,398.22c-9.56,20.68-32.68,23.53-32.68,23.53l-1.07-18.66S398.81,395.93,396.7,392l0-.07-.25-.65c-.64-3.65-.09-17.17-.09-17.17l21.76-8.81c9.45-12.23,32.41-26.39,32.41-26.39l1.07-6.41c-16.49-8.11-13.73-32.64-10.94-35.65s7.93-3,7.93-3,6,19.73,9.87,29S473.75,347.3,471.9,352.87Z"/><path class="cls-16" d="M406.3,321.33s2.43,22.53,9.55,33.26A52.44,52.44,0,0,1,406.09,326Z"/><path class="cls-16" d="M394.5,334.1s2.36,18.13,13.52,28.21c0,0-9.88-4.93-13.52-21.88Z"/><path class="cls-17" d="M451.45,381.84s-24.54,23.83-40.21,21.25l1.07,18.66s25.75-2.25,34.12-29.34C446.43,392.41,449.44,384.62,451.45,381.84Z"/><path class="cls-18" d="M970.2,414.23s-22.54,41.2-48.92,53.86h-9l-20.81,31.55S878,491.19,877,463.45c0,0,4.71-4.92,5.86-10.47,0,0-7.42-5.84-9.44-10.12s-2.72-17.17-4.15-22.47-13.58-16.31-16.3-17.73-15-2.16-15-2.16-1.72-4.43,0-6.56,20.88-9.61,31.32-2.45a47.24,47.24,0,0,0,1.86,8.31c1.16,2.86,10.31,13,11.73,13s7.59-5.14,10.31-9.15c2.6-3.85,16.44-33.68,19.79-43.75a1.17,1.17,0,0,1,.1-.3c0-.16.11-.32.13-.45a1.62,1.62,0,0,0,.09-.3s.05-.06.05-.11c2.58-8.72,17.6-25.46,25.61-30,0,0,3.42-.86,5.28,3.42,0,0-6.43,18.32-13.16,29.19-1.13,1.84-2.35,4-3.62,6.3h0c-5.73,10.53-12.18,24.32-13.11,26.34l-.11.25,3.58,1.83,9.67-9.17,9.92-9.4,22.76,24-2.24,2.86-7.11,9.12,3.6.66,8.38-9.26Z"/><path class="cls-19" d="M964.93,423l-7.2,10.58s-39.53-30.48-48.12-33.07-11.73-.86-11.73-.86L889,411s16.31,14.45,17.74,33.9c0,0-5.44-24.59-23.9-32.05,1.43,0,7.59-5.14,10.31-9.15,2.6-3.85,16.44-33.68,19.79-43.75-.45,1.72-1,5.07.37,7.72,1.94,3.6,13.41.2,14.08,0h0L914.3,394l-.11.25,3.58,1.83,9.67-9.17-4.85,11.26,35.29,6.23-7.11,9.12,3.6.66Z"/><path class="cls-20" d="M937.37,377.48s6.86-1,11.3,7.87l-1,2.86s6.7,1.31,13.16,12.16c0,0-5.72,10.44-19.88,15.16,0,0-6.58-1.86-7.72-7.44l1.28-3.58-5.15,3.87s-6.15,1.86-8.86-7.3Z"/><path class="cls-21" d="M972.27,411.38s1.43-6.58-5.58-10.87l-13.59,15s.41,4.81,6.29,5.86C959.39,421.39,968.69,418.25,972.27,411.38Z"/><path class="cls-22" d="M873.42,442.86s15.74,17.57,38.84,25.23l-10,15.09L881.53,456.8l1.33-3.82S874.56,446.74,873.42,442.86Z"/><path class="cls-16" d="M947.66,388.21s-6.58,10.87-13.16,16.3l-1.28,3.58s12.77-8.62,17.47-18.58A8.09,8.09,0,0,0,947.66,388.21Z"/><path class="cls-23" d="M900.17,504.35c-2,3.15-12,9.74-14.59,12.32s0,11,0,11c-42.06,44.64-85.91,67-90.32,69.17l-.37.18c-3.44.43-20.18-4.28-36.91-37.75-15.18-30.33-19.53-50.58-20.23-54.11l-.09-.54,3.69-5,5.48-61.79,3.85,12.44c14.59-17.6,28.34-44.62,28.34-44.62l.61,1.95v0c2.47,9.69,7.54,46,12.25,59,3,8.08,7.59,12.54,11,14.85l0,.05,0,0c-13.43,12.25-20.09,29.88-23.37,43.9a121,121,0,0,0-3.22,22.71s3.71-17.44,15.45-38.41c4.25-7.63,10.46-14.45,16.6-20.05A134.86,134.86,0,0,1,821.3,479.3c3.22,2,5.94,5.14,8.57,3.83-17.67,26.52-17.24,79-.64,69s20.38-31.26,20.38-31.26c-3.92-25.89-2.75-55.08.4-60.63,3.82.12,14.76,7.82,15.39,7.64-1,30.46,13.32,50.8,13.32,50.8l9.44-14.61c-13.74-23.17-12.72-45.73-12.72-45.73.56-.25,3.89,2.2,3.89,2.2l-2.33,2.9a79.26,79.26,0,0,0,15.31,34.47l7.86-11.51S902.18,501.2,900.17,504.35Z"/><path class="cls-24" d="M718.07,694.9v9l-.16.16-.5.45-.41.34c-4.07,3.22-21.35,13.75-75.35,16.65-64,3.42-106.61-17.17-106.61-17.17l3.22-8.81s-3-2.56-3.22-3.85,2.36-4.3,2.36-4.3S531,684,531,679.66c0-3.88,10.51-15.09,12.21-25.62a14.64,14.64,0,0,0,.25-3.35c-.43-11.33-10.21-21.36-11.57-27.79a.31.31,0,0,1,0-.09c-1.29-6.44,16.74-22.31,16.74-22.31-15.44-48.93-18.46-114.59-18.46-114.59l-3-3.44s-18.46,42.06-35.19,62.65-41.2,38.21-45.48,37.35c-9.88,0-20.91-17.17-30.92-38.35s-10.62-82-11.14-85.77-6.12-11.28-6.46-14.49c10.74,18.45,27.84,13,27.84,13-12.39.27-18.82-22.9-18.82-22.9l-.07-.16-.07-.16-6.05-16c.68.77,14.84,16.6,28.52,6.84,14-10,21.24-29.4,21.24-29.4V420s.84,3.87,2.13,3.87c-.83,11.46-3.26,25.41-6.2,39.16-6.37,29.74-15.09,58.46-15.09,58.46s23.65-12.87,32-45.48A137.93,137.93,0,0,0,467.55,437a96.84,96.84,0,0,0-1.91-16.33,2.66,2.66,0,0,0-.11-.47.93.93,0,0,0,0-.23.81.81,0,0,0,0-.11l2.29,4.84,4.35,10.79c5,41.85-5.37,104.93-5.37,104.93,15.18-18.89,18.32-60.66,17.67-70.8-.3-4.85-.68-10.83-.93-15.72-.34-5.35-.57-9.4-.57-9.4L514,463l-5.73-18.17L530.83,463s20.31,24.46,41.2,27.31,97.55,1.16,97.55,1.16-66.66,4.28-86.12,10-23.17,12.3-23.17,12.3c14.07,71.54,91.92,95.67,94.34,96.39-70.62-10.6-103.49-70.64-103.49-70.64s-1.15,33.77,4.29,46.63,37.48,44.35,78.68,50.92a95.87,95.87,0,0,0,10.26,1c34.74,1.63,63.51-16.13,66.45-18l.25-.16a.64.64,0,0,1-.07.12c-1.11,1.69-15.35,21.72-72.88,23.91-3.49.14-6.89.12-10.19,0h0c-53.32-2.24-80.47-37.76-80.47-37.76s-19.73,10.6-7.14,26.32c.14.16.27.34.41.5,3.72,4.28,11.89,9.51,21.56,14.9l.8.46c11.68,6.45,25.39,13.11,36,18.61l.16.07c6.48,3.38,11.8,6.28,14.77,8.45a0,0,0,0,1,0,0c3,2.18,3.6,3.58.68,3.92-14.88,1.72-71.23-10.58-73.52-7.16s2.79,12.3,2.79,12.3c51.73,25.64,162.42,13,165.9,12.62-92.63,23.71-168.41-6.32-168.41-6.32l2.51,8.88s41.27,14.29,89.89,15.44,79-11.3,79-11.3Z"/><path class="cls-25" d="M680.17,491.2s36.84,2,61.19,8.44L728.8,518.69S709.92,502.07,680.17,491.2Z"/><path class="cls-26" d="M714.59,592.76s-23,19.17-45.58,28a152.63,152.63,0,0,1-44.35,9.73s13,3.86,45-1.29,42.91-22.46,42.91-22.46Z"/><path class="cls-27" d="M724.91,666.61v0c-42.54,11-96.53-4.78-96.08-6.7s14.79.86,48-5.8c32.23-6.45,43.92-17.92,44.62-18.62-.27,2-4.71,6.23-6,10.9C714.65,649.51,720.67,659.29,724.91,666.61Z"/><path class="cls-28" d="M609.38,497c-36.33,3.69-46.12,13.81-46.12,13.81-10.21,1.29-33.16-24.87-33.16-24.87l-3-3.44s-18.46,42.06-35.19,62.65c-2,2.45-4.1,4.87-6.28,7.2L488,547s3.9-1.86,5-22.31-8.58-50.92-8.65-55.06-1.5-25.12-1.5-25.12L514,463l-5.73-18.17L530.83,463s8.85,13.31,31.21,24.41C583.13,497.92,606.77,497.08,609.38,497Z"/><path class="cls-29" d="M527.11,482.47l21.65-2.82s8.65,5.73,26,12.8L560.29,513.8s5.75,30.43,22.24,47.59c0,0-43.76-24.31-49.92-44.75Z"/><path class="cls-30" d="M400.75,417.7,406.94,434s6.3,22,18.82,22.9S450.51,420,450.51,420V395.14s-13.31,28.54-27.69,31.76S400.75,417.7,400.75,417.7Z"/><path class="cls-31" d="M475.61,404.81S486.77,427.12,500.5,434c0,0-16.33-39.63-12.89-62.94C487.61,371,481.61,374.78,475.61,404.81Z"/><path class="cls-32" d="M746.83,437.85l3.85,12.44,3.91,102a246.32,246.32,0,0,1-16.84-47.13l3.61-5.55S747.41,461.18,746.83,437.85Z"/><path class="cls-33" d="M865.4,467.89s-2.18,50.12,19.12,54.45l1.06,5.36S858,526.68,865.4,467.89Z"/><path class="cls-34" d="M829.87,483.13s-.82,1.8-8.57-3.83c0,0-26.79,19-37.11,45.73,0,0,16.51-24.58,25.3-27.24s10.91,7.15,10.91,7.15S823.88,491.13,829.87,483.13Z"/><path class="cls-35" d="M397.92,443.86s10.31,19,29.62,13c0,0-11.57,7.8-23.16,1.45C404.38,458.35,397.18,446,397.92,443.86Z"/><path class="cls-36" d="M465.44,419.8s14.17,53-22.8,92.81c0,0,24-12.33,29.46-40.86S465.44,419.8,465.44,419.8Z"/><path class="cls-37" d="M719.43,377.44s-1.6,23.93-13.06,41.09-34.21,28.76-34.21,28.76,28.53-10.52,41.62-25.32S719.43,377.44,719.43,377.44Z"/><path class="cls-38" d="M573.45,341.45a151.23,151.23,0,0,0,6.44,40.39c6.44,20.39,62.31,56,62.31,56s-57.59-23.92-68.75-45.43S573.45,341.45,573.45,341.45Z"/><path class="cls-39" d="M691.46,345.78c-1.77,21.07-8.18,35.74-15,45.64C667,405,656.83,409.66,656.83,409.66a117.66,117.66,0,0,1-26.64-16.06c-32.3-25.82-42.72-61.61-43.51-64.55,13.64,32.93,33.66,52.88,48.83,64.12,12.23,9.08,21.32,12.5,21.32,12.5V395.14a71.78,71.78,0,0,1-7-3.08c-26.72-13.48-40.76-41.56-47.33-59.73a.54.54,0,0,1-.05-.11,130.49,130.49,0,0,1-4.94-16.74h4.85l-1.58,3.4-.07.11c.77,3.44,1.65,6.75,2.65,9.9a.68.68,0,0,0,.09.25c15,47.15,53.41,62.35,53.41,62.35,26.72-19.73,26.2-51.05,26.2-51.05v-4.3l5,1.49Z"/><path class="cls-40" d="M850,460.25s-7.27,23.73-.4,60.63c0,0,3.43-46.77,6-50.85s9.79-2.14,9.79-2.14S854.05,461.62,850,460.25Z"/><path class="cls-41" d="M779.52,589.29c-6.35-5.55-14-14.82-21.54-30-15.18-30.33-19.53-50.58-20.23-54.11l3.6-5.55L746.18,453l4.5-2.69A190.77,190.77,0,0,0,779,405.67a13.28,13.28,0,0,1,.61,1.95v0c2.47,9.69,7.54,46,12.25,59,3,8.08,7.59,12.54,11,14.85,0,0-27.88,41.36-29.24,70.87C772.45,579.18,778.43,587.93,779.52,589.29Z"/><path class="cls-42" d="M614,675.53s-50.26-8.24-70.78-21.47a0,0,0,0,1,0,0,14.64,14.64,0,0,0,.25-3.35c-.43-11.33-10.21-21.36-11.57-27.79.22.61,1.7,4,8.83,10.12a151.86,151.86,0,0,0,21.56,14.9l.8.46c14.49,8.56,27,14.36,36,18.61l.16.07c8.11,3.81,13.37,6.32,14.77,8.45A0,0,0,0,1,614,675.53Z"/><path class="cls-43" d="M721.49,635.51c-.27,2-4.71,6.23-6,10.9,0,0-18.44,19.52-86.68,13.52.45-1.93,14.79.86,48-5.8C709.1,647.68,720.79,636.21,721.49,635.51Z"/><path class="cls-44" d="M732.84,371.36l-43.63,14.13-12.77,5.93-.07,0-8.31,0-11.23,0-7,.57-3.71.27-10.58.84-5.32.43-52.32-18.94-9.35-3.37-43-15.59c1.27-.49,2.56-1,3.92-1.54,28.88-11.43,57.21-25.32,57.21-25.32l10.87-13.36h4.85a161,161,0,0,0,9.06-25.3l2.88-12.93c.2-1.25.29-1.93.29-1.93l15.4,8.13L681.9,325c0,2.83,0,5.37.2,7.52l.75,5.23c.14-1,.18-1.6.18-1.6l5,1.49,3.42,8.15s5.79,9,28.76,19.12A135.55,135.55,0,0,1,732.84,371.36Z"/><path class="cls-45" d="M699.61,331.56s-20.34,4.58-42.78-6.3-41.32-42.92-42.47-50.91,8.58-28.9,8.58-45.21-8-44.35,5.44-59.52,75.24-17.44,95.28,2c0,0,6.21,15.58,6.21,24.39a65,65,0,0,1-1,8.85c-.18,1.34-.43,2.77-.66,4.24-1.79,10.67-4.26,23.69-3.1,29.4a28.58,28.58,0,0,0,1.79,5.57v0c2.47,5.71,6.14,10.26,6.79,15.2C734.6,265.77,726,311.54,699.61,331.56Z"/><path class="cls-46" d="M622.78,224.54s-5.55-13.93-19.5-14.14c0,0-8.16,3.22-9.44,9.44,0,0,3,22.53,6.43,33s16,9,16,9S627.25,245.11,622.78,224.54Z"/><path class="cls-47" d="M676.38,270.41s4.64-.36,6.65,1.14,9.3,8.58,18.52,10.52,15.42-5.93,17.38-6.33,4.13,2.37,4.13,2.37-.85-3.21-5.65-4.67c0,0-1.95,7.4-15.32,4.87S683,269.83,683,269.83l-.68-1.21A35.45,35.45,0,0,0,676.38,270.41Z"/><path class="cls-48" d="M656.64,201.12l.19-1.43s13.34-23.41,39.73-24.05,32.35,15.89,32.35,15.89l4.89-7.42-11.14-22.63-77.54-1.29-18.88,15.23-2.39,37.3,8.4,49.23,20.42,10.89,5.77-5.11c-2.13-16.49-14.39-31.55-14.39-31.55L653,230s23,11.11,36.22,7.79c0,0,10-29.13,9.41-50.7C698.62,187.06,664.61,192.09,656.64,201.12Z"/><path class="cls-49" d="M655.46,202.85s1.29-8.43,15.53-11.8c15.85-3.76,28.73-6.94,28.73-6.94s-2.81,9.25-8.09,12.72c0,0-16.78-.61-25.27,1.32S655.46,202.85,655.46,202.85Z"/><path class="cls-49" d="M728.91,191.53s-8,6.21-13.52,21c0,0,5.26-6.86,10.09-6.75,3.31.07,2.77,3.34,2.77,3.34S731.55,200.28,728.91,191.53Z"/><path class="cls-50" d="M660.78,226.71s.86-17.81,18.24-22.32c0,0,6.22,8.05,6.87,17.17C685.89,221.56,676.66,219.84,660.78,226.71Z"/><path class="cls-51" d="M710.56,233.79s1.41-14.18,9.55-19.42c0,0,5.55,4.16,5,16C725.09,230.39,720.22,228.64,710.56,233.79Z"/><path class="cls-52" d="M660.78,226.71s5.65,6.93,21.46,8.29c0,0,3-4.58,2.72-13.55C685,221.45,670.44,220.05,660.78,226.71Z"/><path class="cls-52" d="M710.56,233.79v2.07s2.44,5.08,11.16,5.94a24.36,24.36,0,0,0,3-11.49S719.22,228.92,710.56,233.79Z"/><path class="cls-53" d="M677.68,221.08A19.58,19.58,0,0,0,674,233.64a59.12,59.12,0,0,0,8.21,1.36s3.46-4.81,2.72-13.55C685,221.45,680.37,220.46,677.68,221.08Z"/><path class="cls-53" d="M718.85,230.55s-2.28,2.43-2.71,9.89a17.09,17.09,0,0,0,5.58,1.36,20.68,20.68,0,0,0,3-11.49A9.94,9.94,0,0,0,718.85,230.55Z"/><path class="cls-49" d="M676.38,234.18s-1.44-9.63,4.07-13.31l4.51.58s1.5,7.62-2.72,13.55C682.24,235,677.76,234.49,676.38,234.18Z"/><path class="cls-49" d="M720.84,230.13a41.2,41.2,0,0,0-3,10.94,12.42,12.42,0,0,0,3.87.73s3.09-3.78,3-11.49A9.3,9.3,0,0,0,720.84,230.13Z"/><path class="cls-54" d="M660.78,226.71s10.52-6.12,28.43-2.63l-3.32-2.52A30,30,0,0,0,660.78,226.71Z"/><path class="cls-54" d="M710.56,233.79a28.39,28.39,0,0,1,18.27-2.11l-4.06-3S718.18,227.67,710.56,233.79Z"/><path class="cls-55" d="M672.16,226.71a6.21,6.21,0,0,1,5.43,2S674.07,229.72,672.16,226.71Z"/><path class="cls-55" d="M714.43,235s4.48-.87,6,1.18C720.46,236.18,718.06,237.83,714.43,235Z"/><path class="cls-56" d="M661.84,227.75a41.2,41.2,0,0,0,21.26,10l.34-4.77-1.2,2S669.66,234.26,661.84,227.75Z"/><path class="cls-56" d="M710.56,235.86s1.46,5.22,12.1,7.58l-.34-2.55-.6.91S714.16,240.83,710.56,235.86Z"/><path class="cls-57" d="M689.21,256.75s4-.86,11.27,0,15.5,2.86,20,0c0,0-6,6-11.11,6.86s-13-3.62-13-3.62l-3.43.06A9.38,9.38,0,0,1,689.21,256.75Z"/><path class="cls-58" d="M693.4,260a5.45,5.45,0,0,1,3.29-.86c1.5.28,3,2.47,3,2.47A14.93,14.93,0,0,0,693.4,260Z"/><path class="cls-59" d="M720.46,256.75c1.9-1.86-8-19.44-12.69-20.09s-9.15,19.7-9.15,19.7,6.56.92,12.93,1.78S720.46,256.75,720.46,256.75Z"/><path class="cls-60" d="M727.51,201.4c-2.67-.34-12.11,11.14-12.11,11.14s-6,18.59-4.83,24.1,15.77,8.45,15.77,8.45l.61-1v0a28.58,28.58,0,0,1-1.79-5.57c-1.16-5.71,1.31-18.73,3.1-29.4a22,22,0,0,0,.66-4.24C729,203.16,728.74,201.53,727.51,201.4Z"/><path class="cls-61" d="M727.08,276.91c-3-6.3-1.15-9.58-27.31-13-37-4.87-40.2,6.43-46.5,4.71a6.86,6.86,0,0,1-.75-.27c-6.82-2.65-22.87-18.44-23.28-39.71-.43-22.1,14.38-37.78,14.38-37.78-5.37-4.5-7.52-17.57-1.72-23.17s15.67-4.28,39.91-1.72,24.25,1.09,24.25,1.09c7.71,2,12.12,9.2,13.37,11.51a7.45,7.45,0,0,1,.36.72l3-2.79a39.42,39.42,0,0,1,6.66,24.67s13.3-27,11.78-30.87c-2.76-7.07-10.44-17.37-10.92-18l0,0s-2.15-20.59-8.58-20.59-33.91,6.21-33.91,6.21c3-7.07,2.58-15.22,2.58-15.22l-.11.11c-9,8-17.74,8.92-30.15,14.68-6.25,2.92-9.19,5.61-11.62,8.42l-.83,1-.89,1.06c-.86,1.09-1.74,2.2-2.81,3.33,0,.07-.11.11-.13.14l-.07.06a35.47,35.47,0,0,1-3.6,3.38c-8.16,6.64-26.09,11.08-28.25,18.1s2.72,16.58,5.3,26.45a53.9,53.9,0,0,1,1.39,18.6,36.48,36.48,0,0,1,5.7,27.11c-2.51,14.42-8,16.78-8,16.78a24.66,24.66,0,0,0-2,15.38c7.92,31.53,40.72,50.3,40.72,50.3,29.17,10.87,48.36,6.14,48.36,6.14l0,0c21.22-13.84,28.49-59.64,28.81-61.77C731.82,272.47,727.88,278.58,727.08,276.91ZM714,306.1c-5.14-.86-6.23-13.88-7.93-15.6s-11-1-11-1-8.58,9.74-12,10-21.74-7.15-17.78-18.3S683,268.62,683,268.62a33.54,33.54,0,0,0,17.87,6.7c10.74.71,14.61-1.27,15.88-1.83s8.2,2.56,8,12.3C724.68,292.56,719.16,307,714,306.1Z"/><path class="cls-62" d="M712.66,240.57s9.25,11.48,8.36,15.79c-1,4.73-11.67,7.25-11.67,7.25s8.59-3,10.34-7.25A56.77,56.77,0,0,0,712.66,240.57Z"/><path class="cls-63" d="M729.46,201.17a39.42,39.42,0,0,0-6.66-24.67,65.78,65.78,0,0,0,7.5-24.25l0,0c2.22,5.46,3.49,16.08,3.49,16.08l7.43,2C742.76,174.13,729.46,201.17,729.46,201.17Z"/><path class="cls-64" d="M719.43,178.57c-1.25-2.31-5.66-9.54-13.37-11.51,0,0,0,1.5-24.25-1.09s-34.11-3.85-39.91,1.72-3.65,18.67,1.72,23.17c0,0-14.81,15.68-14.38,37.78.41,21.27,16.46,37.06,23.28,39.71l-.31,2.35s1.2,48.7,13,52.57,36.38,1.86,38.66,4.15-.31,5.91-.54,6.25l0,0s-19.19,4.73-48.36-6.14c0,0-32.8-18.77-40.72-50.3a24.66,24.66,0,0,1,2-15.38s5.5-2.36,8-16.78a36.48,36.48,0,0,0-5.7-27.11,53.9,53.9,0,0,0-1.39-18.6c-2.58-9.87-7.45-19.46-5.3-26.45a30.88,30.88,0,0,0,22.74-5s2.41-3.33,13-5S701,165.45,701,165.45s-4.28-3.55-13.29-5.91c-8.52-2.24-37.6.36-40.72.61,3.33-.59,36.3-6.25,40.06-5.12,4,1.18,18.26,7.73,18.26,7.73-1.29-6.55-14.07-22.31-14.07-22.31s-18,.31-29.83,2.78c-10.53,2.2-16.3,7-17.44,8l2.81-3.33.89-1.06.83-1,4.13-.7,20.7-8.36c6.95-3.71,15.85-12.91,16.94-14l.11-.11s.43,8.15-2.58,15.22c17.48-2.16,23.4-1.07,23.4-1.07C719.16,148.06,719.43,178.57,719.43,178.57Z"/><path class="cls-65" d="M655,327.55s10.72-2.54,26.9-1.89,25.47.72,21.46,8C703.35,333.69,683,338.28,655,327.55Z"/><path class="cls-66" d="M711.21,136.8s9.83-3.84,13.71-3.2c0,0-1.54-2.06-3.15-2.49s-34,6.76-34,6.76S708,135.51,711.21,136.8Z"/><path class="cls-67" d="M691.25,140.45s-.77,10.7-4.19,14.58L647,160.15l-11.77-2.07s4.55-1.94,9.56-7.78S675.91,138.73,691.25,140.45Z"/><path class="cls-68" d="M730.3,152.25s3.26,10.53,3.51,16.1l7.43,2S739,162.33,730.3,152.25Z"/><path class="cls-69" d="M621.12,243.44s-2.81-13.51-9.72-20.2a16.22,16.22,0,0,0-14.77-4.54s2.14,25.06,4.4,31.18,5.68,7.72,5.68,7.72-4.83-4.23-5.47-12.52-.86-20,1-21.38,9.19,4.05,9.19,4.05-2.33,2.85-3.72,10.24,3.75,12.75,5.68,12.64-.1-8.55.22-11S618.19,237.76,621.12,243.44Z"/><path class="cls-70" d="M614.23,226.64a16.87,16.87,0,0,0-6.72,15.12c.81,10.16,6.62,9.71,6.64,7.58s-1.11-7.62-.52-10.73,5.6-1.7,5.6-1.7S615.93,228.84,614.23,226.64Z"/><path class="cls-71" d="M732.18,271.9s-9.37,42.75-28.83,61.79C703.35,333.69,725.54,325,732.18,271.9Z"/><path class="cls-71" d="M721.77,131.11s5,3.85,5.89,17.21-4.86,28.18-4.86,28.18,7.43-11.09,8.15-23.25S725.69,132.65,721.77,131.11Z"/><path class="cls-72" d="M661.91,159.09a115.32,115.32,0,0,0,24,5c12.54,1.11,15.12,1.36,15.12,1.36s-5-4.89-15.78-6.36S661.91,159.09,661.91,159.09Z"/><path class="cls-73" d="M717.17,272.84s5.48,0,7.63,6.87A56.69,56.69,0,0,1,727,289.9l1.94-7.53s-2.53-9.53-5.16-11.68c-1.89-1.54-5.15-3.11-6.7-2.73Z"/><path class="cls-74" d="M702.42,266l.93,8.16s6.67.53,11.08-1.29l.79-4.94S706.71,265.76,702.42,266Z"/><path class="cls-71" d="M732.84,371.36s39,28.49,44.08,38.3,7.11,40.54,14,53.85c0,0-4.68-21.77-8-38.83s-2.49-17.31-4.32-21.49S747.63,378.79,732.84,371.36Z"/><path class="cls-71" d="M725.85,530s-18.81,80.5-18,85.94,13,16.53,13.6,19.57c0,0-9.31,12.47-8.88,15.22s16.31,20.21,15.88,25.61c-.12,1.57-10.42,18.56-10.42,18.56s11.64-16.7,12.21-19.37-14.26-25-14.7-27.24c-1.12-5.86,7.4-10.18,7.69-14s-11.54-13.3-11.63-19.6S725.85,530,725.85,530Z"/><path class="cls-71" d="M729.67,721.9s40.65,92,54.52,184.07C784.19,906,781.87,816.15,729.67,721.9Z"/><path class="cls-59" d="M471.9,352.87s-10.52-2.24-14.89-11.42S455.5,319,455.5,319s8.23,15.8,12.34,21.19S473,351.73,471.9,352.87Z"/><g class="cls-75"><path class="cls-76" d="M784.19,906H677.73c-11.14-61.88-37.05-142.4-37.05-142.4-6.3-3.74-18.6.86-18.6.86L583.17,906H485.91c-5.16-87.34,42.63-186.47,42.63-186.47l0,0c-.16-.34-1.68-3.37-1.27-5.41.16-.88,1.79-2.56,3.62-4.21,2.63-2.4,5.76-4.8,5.76-4.8l181.44-1.14s1.83.93,4.17,2.34h0c4,2.4,9.33,6.11,9.33,8.83a12.37,12.37,0,0,1-1.83,6.7l-.09.12C768.57,795.32,784.19,906,784.19,906Z"/><ellipse class="cls-77" cx="536.47" cy="833.3" rx="104.89" ry="40.6" transform="translate(-396.11 1168.7) rotate(-77.01)"/><ellipse class="cls-78" cx="724.91" cy="832.28" rx="40.6" ry="104.89" transform="translate(-197.69 226.47) rotate(-15.65)"/><path class="cls-79" d="M570.58,906.06l-1.12-.19c12.38-72.93,43.8-134.09,44.12-134.7l.13-.17,8-7,.74.86-7.92,6.92C613.12,774.54,582.7,834.65,570.58,906.06Z"/><path class="cls-80" d="M692.18,906.06c-12.13-71.46-43.39-132.15-44.8-134.85l-7.08-6.36.76-.84,7.28,6.59c.32.61,32.58,62.34,45,135.27Z"/><path class="cls-81" d="M731.59,715.08a12.37,12.37,0,0,1-1.83,6.7l-.09.12c-37.78,8.54-66.53,43.8-66.53,43.8C683.73,805.2,718.07,906,718.07,906H677.73c-11.14-61.88-37.05-142.4-37.05-142.4-6.3-3.74-18.6.86-18.6.86L583.17,906H558c9-59.3,35.63-131.69,35.63-131.69-26.16-30.46-65.07-54.78-65.07-54.78l0,0-4.62-2.9,3.35-2.51C544.08,730.21,598.35,751.3,600,752l-69.15-42.1c2.63-2.4,5.76-4.8,5.76-4.8l181.44-1.14s1.83.93,4.17,2.34l-49.56,27.27Z"/><polygon class="cls-82" points="640.68 763.57 661.86 749.83 656.83 763.57 653.14 804.94 640.68 763.57"/><polygon class="cls-83" points="622.08 764.43 600.02 751.95 552.79 730.68 612.93 770.43 616.52 784.67 622.08 764.43"/></g><path class="cls-84" d="M351.28,420.39c-8.63-14.86-23.9-21-23.9-21l-5.32,2.48,12,21.76a23.25,23.25,0,0,1-7.33,13l0,0a23.32,23.32,0,0,1-14.64-2.69l-9-23.15-5.33,2.48s-5.1,15.64.76,31.8c0,0,2.27,5.24,2.66,5.7,2.11,2.46,7.61,5.3,18.25,4.65l36.7,70a19.19,19.19,0,1,0,19.84-9.27l-30.14-73c7.17-7.57,8.69-13.53,8.14-17A62.69,62.69,0,0,0,351.28,420.39Zm30.19,120.74-9.72,4.54-8.8-6.14.93-10.69,9.72-4.54,8.8,6.14Z"/><path class="cls-85" d="M353.94,426.09c-8.63-14.86-23.9-21-23.9-21l-5.32,2.48,12,21.76a23.3,23.3,0,0,1-7.34,12.95l0,0a23.32,23.32,0,0,1-14.64-2.69l-9-23.15-5.32,2.48s-5.11,15.64.75,31.8c0,0,8.3,11.12,20.91,10.34l36.7,70a19.2,19.2,0,1,0,19.84-9.27l-30.14-73C357.15,439.59,353.94,426.09,353.94,426.09Zm30.19,120.74-9.72,4.54-8.8-6.14.93-10.69,9.73-4.54,8.79,6.14Z"/><rect class="cls-86" x="298.79" y="411.68" width="5.88" height="6.29" transform="translate(-147.23 166.71) rotate(-25.04)"/><rect class="cls-86" x="323.11" y="400.36" width="5.88" height="6.29" transform="matrix(0.91, -0.42, 0.42, 0.91, -140.15, 175.95)"/><rect class="cls-86" x="372.57" y="543.11" width="10.73" height="6.29" transform="translate(-195.69 211.33) rotate(-25.04)"/><path class="cls-87" d="M329.92,466.26l29.64,57a14.5,14.5,0,0,0,12-5.59l-24.13-59.54C336.56,457.69,329.92,466.26,329.92,466.26Zm39.32,51.83a17.32,17.32,0,0,1-3.84,2.52,14.58,14.58,0,0,1-4.09,1.22L331.62,466a30.77,30.77,0,0,1,7.14-4.68,24.76,24.76,0,0,1,7.34-2.16Z"/><path class="cls-86" d="M369.24,518.09l2.28-.46s-3.39,6-12,5.59l1.75-1.39A16.13,16.13,0,0,0,369.24,518.09Z"/><path class="cls-88" d="M329.92,466.26l1.7-.23a27.68,27.68,0,0,1,14.48-6.84l1.29-1.1s-3.78-.66-9.67,2.09S329.92,466.26,329.92,466.26Z"/><path class="cls-89" d="M322.06,461.05a65.38,65.38,0,0,0,26.4-12.29l3.86,9.34s-4.37-4.32-14-.41c-11.22,4.57-10.6,13.6-10.6,13.6Z"/><path class="cls-90" d="M352.32,458.1a11.57,11.57,0,0,0-5.87-2l28.69,69.29,3.46-3.57Z"/><path class="cls-55" d="M352.32,458.1s-3,9.26,5.63,13.65Z"/><path class="cls-91" d="M796.48,304.89l7.29,207.91a15.32,15.32,0,0,0,15.31,14.78h358.15a15.32,15.32,0,0,0,15.32-15l5-210.34a15.32,15.32,0,0,0-15.41-15.69L811.69,289A15.31,15.31,0,0,0,796.48,304.89Z"/><path class="cls-92" d="M1177.23,528.15H819.08a15.83,15.83,0,0,1-15.88-15.33l-7.29-207.91a15.88,15.88,0,0,1,15.77-16.44L1182.14,286a16,16,0,0,1,11.44,4.75,15.76,15.76,0,0,1,4.55,11.51l-5,210.34A15.8,15.8,0,0,1,1177.23,528.15Zm5-241h-.1L811.69,289.6A14.76,14.76,0,0,0,797,304.87l7.29,207.91A14.71,14.71,0,0,0,819.08,527h358.15A14.84,14.84,0,0,0,1192,512.61l5-210.34a14.76,14.76,0,0,0-14.75-15.1Z"/><path class="cls-93" d="M797,315.48h400.13l.64-11a16.79,16.79,0,0,0-16.89-17.78l-370.32,2.93a13.89,13.89,0,0,0-13.78,14.15Z"/><polygon class="cls-94" points="817.13 332.25 817.13 452.57 939.61 452.57 939.61 331.62 817.13 332.25"/><rect class="cls-95" x="1057.97" y="340.33" width="53.28" height="53.28"/><rect class="cls-96" x="1120.83" y="340.33" width="53.28" height="53.28"/><rect class="cls-97" x="994.06" y="340.33" width="53.28" height="53.28"/><rect class="cls-98" x="1037.86" y="424.67" width="136.24" height="12.76"/><rect class="cls-98" x="1003.79" y="444.09" width="170.32" height="3.95"/><rect class="cls-98" x="1005.39" y="400.4" width="32.58" height="3.95"/><rect class="cls-98" x="1068.31" y="400.4" width="32.58" height="3.95"/><rect class="cls-98" x="1131.17" y="400.4" width="32.58" height="3.95"/><rect class="cls-98" x="994.06" y="450.51" width="54.79" height="3.95"/><rect class="cls-98" x="1003.79" y="456.85" width="170.32" height="3.95"/><rect class="cls-98" x="994.06" y="463.2" width="180.05" height="3.95"/><rect class="cls-98" x="994.06" y="469.54" width="180.05" height="3.95"/><rect class="cls-98" x="1003.79" y="495.19" width="170.32" height="3.95"/><rect class="cls-98" x="994.06" y="501.53" width="180.05" height="3.95"/><rect class="cls-98" x="994.06" y="507.87" width="180.05" height="3.95"/><rect class="cls-98" x="994.06" y="475.88" width="172.8" height="3.95"/><rect class="cls-98" x="1003.79" y="482.23" width="170.32" height="3.95"/><rect class="cls-98" x="994.06" y="488.57" width="145.87" height="3.95"/><g class="cls-99"><path class="cls-100" d="M851.44,428.45a34.85,34.85,0,1,1,34.84-34.84A34.88,34.88,0,0,1,851.44,428.45Zm0-67.42A32.58,32.58,0,1,0,884,393.61,32.62,32.62,0,0,0,851.44,361Z"/></g><circle class="cls-55" cx="851.44" cy="393.6" r="18.94"/><g class="cls-99"><path class="cls-100" d="M939.61,366.47a34.85,34.85,0,1,1,34.84-34.85A34.88,34.88,0,0,1,939.61,366.47Zm0-67.42a32.58,32.58,0,1,0,32.57,32.57A32.61,32.61,0,0,0,939.61,299.05Z"/></g><circle class="cls-55" cx="939.6" cy="331.62" r="17.82" transform="translate(465.96 1208.26) rotate(-81.06)"/><g class="cls-99"><polygon class="cls-55" points="811.03 299.15 813.58 295.29 827.34 307.36 825.23 310.3 811.03 299.15"/><polygon class="cls-55" points="827.7 299.15 825.15 295.29 811.38 307.36 813.49 310.3 827.7 299.15"/></g><rect class="cls-55" x="1064.15" y="297.91" width="123.31" height="6.18"/><polygon class="cls-101" points="415.27 208.65 415.27 262.15 479.27 262.7 480.13 206.94 415.27 208.65"/><polygon class="cls-102" points="480.13 206.94 484.31 213.96 482.22 262.65 479.27 262.7 480.13 206.94"/><polygon class="cls-55" points="426.7 226.71 432.61 218.13 464.57 244.95 459.67 251.49 426.7 226.71"/><polygon class="cls-55" points="465.39 226.71 459.48 218.13 427.52 244.95 432.42 251.49 465.39 226.71"/><path class="cls-103" d="M564.57,838.43h-219a17.94,17.94,0,0,1-17.93-17.53l-4.09-179.62a17.94,17.94,0,0,1,17.93-18.34h228a17.93,17.93,0,0,1,17.93,18.42L582.5,821A17.93,17.93,0,0,1,564.57,838.43Z"/><path class="cls-104" d="M564.57,839h-219a18.6,18.6,0,0,1-18.49-18.08L323,641.29a18.49,18.49,0,0,1,18.49-18.92h228a18.51,18.51,0,0,1,18.5,19L583.07,821A18.4,18.4,0,0,1,564.57,839ZM341.49,623.5a17.37,17.37,0,0,0-17.36,17.77l4.09,179.62a17.46,17.46,0,0,0,17.36,17h219A17.28,17.28,0,0,0,581.94,821l4.92-179.62A17.37,17.37,0,0,0,569.5,623.5Z"/><rect class="cls-55" x="382.59" y="659.68" width="115.17" height="4.93"/><rect class="cls-55" x="382.59" y="671.67" width="57.59" height="4.93"/><rect class="cls-55" x="382.59" y="681.68" width="57.59" height="4.93"/><rect class="cls-55" x="446.64" y="681.68" width="45.82" height="4.93"/><rect class="cls-55" x="382.59" y="691.7" width="92.84" height="4.93"/><rect class="cls-55" x="382.59" y="701.71" width="33.04" height="4.93"/><rect class="cls-55" x="422.43" y="731.75" width="57.15" height="4.93"/><rect class="cls-55" x="382.59" y="711.72" width="103.57" height="4.93"/><rect class="cls-55" x="382.59" y="721.74" width="79.68" height="4.93"/><rect class="cls-55" x="382.59" y="731.75" width="37.48" height="4.93"/><rect class="cls-55" x="382.59" y="741.76" width="57.59" height="4.93"/><rect class="cls-55" x="382.59" y="751.78" width="16.52" height="4.93"/><rect class="cls-55" x="405.91" y="751.78" width="59.94" height="4.93"/><rect class="cls-55" x="422.43" y="761.49" width="57.15" height="4.93"/><rect class="cls-55" x="382.59" y="761.49" width="37.48" height="4.93"/><rect class="cls-55" x="382.59" y="771.51" width="57.59" height="4.93"/><rect class="cls-55" x="382.59" y="781.52" width="16.52" height="4.93"/><rect class="cls-55" x="405.91" y="781.52" width="59.94" height="4.93"/><path class="cls-105" d="M1152.2,246.51a10.12,10.12,0,1,1-10.12-10.12A10.12,10.12,0,0,1,1152.2,246.51Z"/><path class="cls-106" d="M203.43,481.24a12.6,12.6,0,1,1-12.6-12.6A12.6,12.6,0,0,1,203.43,481.24Z"/><circle class="cls-107" cx="1171.81" cy="246.51" r="10.12"/><circle class="cls-108" cx="998.51" cy="631.92" r="7.16"/><circle class="cls-109" cx="254.44" cy="703.27" r="6.4"/><path class="cls-110" d="M363.51,640.45H253a16.5,16.5,0,0,1-16.49-15.94L234,551.82a16.49,16.49,0,0,1,16.49-17.05h115.2a16.5,16.5,0,0,1,16.49,17L380,624.46A16.49,16.49,0,0,1,363.51,640.45Z"/><path class="cls-111" d="M363.51,641H253a17,17,0,0,1-17-16.49l-2.46-72.69a17.06,17.06,0,0,1,17.06-17.64h115.2a17.06,17.06,0,0,1,17,17.58l-2.22,72.7A17,17,0,0,1,363.51,641Zm-113-105.69A15.94,15.94,0,0,0,234.6,551.8l2.46,72.69A15.86,15.86,0,0,0,253,639.89H363.51a15.87,15.87,0,0,0,15.92-15.45l2.22-72.69a15.94,15.94,0,0,0-15.92-16.42Z"/><polygon class="cls-55" points="282.45 560.88 255.19 592.47 282.95 616.03 282.95 603.87 266.89 589.97 281.8 573.11 282.45 560.88"/><polygon class="cls-55" points="330.35 562.3 357.6 593.89 329.85 617.45 329.85 605.29 345.9 591.39 328.04 572.49 330.35 562.3"/><polygon class="cls-55" points="288.38 616.03 312.13 563.72 323.29 563.72 296.39 616.03 288.38 616.03"/><path class="cls-112" d="M1107.14,790.05H968.87a20.63,20.63,0,0,1-20.62-19.94l-3.07-90.94a20.63,20.63,0,0,1,20.62-21.33h144.12a20.65,20.65,0,0,1,20.63,21.27l-2.78,90.94A20.64,20.64,0,0,1,1107.14,790.05Z"/><path class="cls-111" d="M1107.14,790.62H968.87a21.12,21.12,0,0,1-21.19-20.49l-3.07-90.94a21.21,21.21,0,0,1,21.19-21.92h144.12a21.2,21.2,0,0,1,21.19,21.85l-2.78,90.94A21.1,21.1,0,0,1,1107.14,790.62ZM965.8,658.4a20.05,20.05,0,0,0-20,20.75l3.07,90.94a20,20,0,0,0,20,19.39h138.27A20,20,0,0,0,1127.2,770l2.78-90.94a20.09,20.09,0,0,0-20.06-20.69Z"/><rect class="cls-98" x="972.88" y="672.48" width="126.63" height="75.21"/><polygon class="cls-55" points="1024.99 691.14 1024.99 729.02 1057.35 708.35 1024.99 691.14"/><rect class="cls-98" x="972.88" y="761.55" width="126.63" height="6.88"/><rect class="cls-55" x="972.88" y="761.55" width="32.78" height="6.88"/><path class="cls-113" d="M880.11,648.71l-6.6,18.91C877.15,657.16,882.4,650.38,880.11,648.71Zm-6.6,18.91-6.63,18.9C868.55,686,869.84,678.06,873.51,667.62Zm6.6-18.91-6.6,18.91C877.15,657.16,882.4,650.38,880.11,648.71Zm-6.6,18.91-6.63,18.9C868.55,686,869.84,678.06,873.51,667.62ZM892.58,684l6.42,3.65,6.93-18.92-7.42-1.24c.13-.71.26-1.41.35-2.1a47.87,47.87,0,0,0,.63-9.43l7.77-4.87-3.54-16.67-7.44,7.12a21.9,21.9,0,0,0-3.81-5.55,13.78,13.78,0,0,0-1.29-1.25l4.55-10.51-12.11-3.94h0l-2.91,10.59a20.06,20.06,0,0,0-8.2,1.92l-1.33-10-13.34,10.1,3.08,8.87a51.16,51.16,0,0,0-6.51,9.47L848,647.59l-6.93,18.92,7.43,1.24a51.48,51.48,0,0,0-1,11.53l-7.77,4.87,3.54,16.66,7.45-7.12a20.92,20.92,0,0,0,5.1,6.79L851.26,711l11.92,4.65,1.85-6.72,1.25-4.58a20.15,20.15,0,0,0,8.22-1.92l1.32,10,13.33-10.09-3.08-8.88a49.35,49.35,0,0,0,5.25-7.25C891.76,685.5,892.17,684.75,892.58,684Zm-19.07-16.37c-3.67,10.44,0,21.21-6.63,18.9s-9.06-12.68-5.4-23.11,12-17,18.63-14.7S877.15,657.16,873.51,667.62Zm6.6-18.91-6.6,18.91C877.15,657.16,882.4,650.38,880.11,648.71Zm-6.6,18.91-6.63,18.9C868.55,686,869.84,678.06,873.51,667.62Z"/><path class="cls-114" d="M899,687.64l6.93-18.92-7.07-3.34-1.14-.54.74-10.42,7.85-3.83-2.59-16.18-17.09-5.56,3.15,7.51,6-12.14-12.11-3.94-5-1.63L866.71,614l-2.23,8.14-10.39-4.93L840.75,627.3l4,10.91-12.47,34.58-6.16,22.45,11.84,1.3-3.86,8.9,11.94,4.65,17.09,5.57-2.74-5.49-1.73-3.29,6.32,2.06,10.79,3.51,13.33-10.09-8.24-9.72,10.41-6.41Zm-37.52-24.23c3.67-10.44,12-17,18.63-14.7l-6.6,18.91-6.63,18.9C860.24,684.18,857.82,673.84,861.48,663.41Z"/><path class="cls-115" d="M881.92,682.06l6.92-18.92-7.43-1.24a51.31,51.31,0,0,0,1-11.51l7.77-4.88-3.54-16.66L879.18,636a20.86,20.86,0,0,0-5.09-6.79l4.55-10.52L866.71,614l-3.09,11.29a20.43,20.43,0,0,0-8.21,1.92l-1.32-10-13.34,10.08,3.07,8.88a51.36,51.36,0,0,0-6.5,9.48L830.89,642,824,660.94l7.42,1.24a51.91,51.91,0,0,0-1,11.52l-7.77,4.87,3.54,16.66,7.45-7.11a20.8,20.8,0,0,0,5.09,6.8l-4.56,10.51,11.94,4.65,3.09-11.29a20.25,20.25,0,0,0,8.21-1.91l1.32,10,13.33-10.09L869,687.92a51,51,0,0,0,6.51-9.49Zm-32.14-1.12c-6.63-2.32-9-12.67-5.39-23.11s12-17,18.64-14.69,9,12.67,5.39,23.11S856.42,683.27,849.78,680.94Z"/><polygon class="cls-116" points="907.26 651.08 890.17 645.51 882.4 650.39 899.49 655.95 907.26 651.08"/><polygon class="cls-117" points="889.15 702.36 872.05 696.79 868.98 687.92 886.07 693.49 889.15 702.36"/><polygon class="cls-116" points="874.09 629.17 883.46 631.88 886.63 628.85 892.85 630.87 895.73 624.22 878.64 618.65 874.09 629.17"/><path class="cls-116" d="M849.19,698.79l8.95,3.73-.74-5.64S852.58,699.42,849.19,698.79Z"/><path class="cls-116" d="M850.57,647.55l15.07,8a23.69,23.69,0,0,1,3.88-4.11S865.59,634.79,850.57,647.55Z"/><polygon class="cls-118" points="177.43 761.7 190.88 776.46 196.16 770.37 183.46 756.39 177.43 761.7"/><polygon class="cls-119" points="927.61 781.59 908.2 795.37 902.78 785.08 921.62 774.07 927.61 781.59"/><rect class="cls-1" width="1358.95" height="905.97"/></g></g></g></svg>