<svg xmlns="http://www.w3.org/2000/svg" xmlns:xlink="http://www.w3.org/1999/xlink" width="81" height="80" viewBox="0 0 81 80">
  <defs>
    <filter id="Rectangle_69" x="0" y="0" width="81" height="80" filterUnits="userSpaceOnUse">
      <feOffset input="SourceAlpha"/>
      <feGaussianBlur stdDeviation="7" result="blur"/>
      <feFlood flood-color="#b69eff"/>
      <feComposite operator="in" in2="blur"/>
      <feComposite in="SourceGraphic"/>
    </filter>
  </defs>
  <g id="Group_37" data-name="Group 37" transform="translate(567 -3172.595)">
    <g transform="matrix(1, 0, 0, 1, -567, 3172.6)" filter="url(#Rectangle_69)">
      <rect id="Rectangle_69-2" data-name="Rectangle 69" width="39" height="38" rx="7" transform="translate(21 21)" fill="#fff"/>
    </g>
    <g id="Layer_2" data-name="Layer 2" transform="translate(-546.518 3192.965)">
      <g id="Layer_1" data-name="Layer 1" transform="translate(0 0)">
        <g id="Layer_2-2" data-name="Layer 2">
          <g id="Surfaces">
            <g id="Photo_Surface" data-name="Photo Surface">
              <g id="Outline_no_shadow" data-name="Outline no shadow">
                <path id="Path_514" data-name="Path 514" d="M7.09,0H32.946a7.083,7.083,0,0,1,7.09,7.09V31.945a7.083,7.083,0,0,1-7.09,7.09H7.09A7.083,7.083,0,0,1,0,31.945V7.09A7.083,7.083,0,0,1,7.09,0Z" transform="translate(0 0)" fill="#001e36"/>
              </g>
            </g>
          </g>
          <g id="Outlined_Mnemonics_Logos" data-name="Outlined Mnemonics Logos" transform="translate(9.008 9.926)">
            <g id="Ps">
              <path id="Path_515" data-name="Path 515" d="M54,76.949V59.784c0-.117.05-.183.167-.183.284,0,.55,0,.934-.017s.817-.017,1.268-.033.934-.017,1.451-.033,1.018-.017,1.518-.017a9.809,9.809,0,0,1,3.436.517,5.957,5.957,0,0,1,2.235,1.368,5.312,5.312,0,0,1,1.218,1.9,6.386,6.386,0,0,1,.384,2.169,5.964,5.964,0,0,1-1,3.553,5.715,5.715,0,0,1-2.686,2.035,10.812,10.812,0,0,1-3.753.567c-.4,0-.667,0-.834-.017s-.4-.017-.717-.017v5.355a.207.207,0,0,1-.183.234H54.2C54.067,77.166,54,77.1,54,76.949ZM57.637,62.82v5.605c.234.017.45.033.651.033h.884a6.231,6.231,0,0,0,1.918-.3,2.869,2.869,0,0,0,1.368-.884,2.578,2.578,0,0,0,.517-1.718,2.746,2.746,0,0,0-.384-1.485,2.419,2.419,0,0,0-1.168-.951,4.895,4.895,0,0,0-1.968-.334c-.434,0-.817,0-1.134.017a3.82,3.82,0,0,0-.684.017Z" transform="translate(-54 -59.5)" fill="#31a8ff"/>
              <path id="Path_516" data-name="Path 516" d="M148.922,88.07a5.9,5.9,0,0,0-1.6-.567,8.793,8.793,0,0,0-1.868-.217,3.358,3.358,0,0,0-1,.117.856.856,0,0,0-.517.334.884.884,0,0,0-.133.45.742.742,0,0,0,.167.434,1.882,1.882,0,0,0,.567.45c.384.2.784.384,1.184.55a12.083,12.083,0,0,1,2.569,1.218,3.882,3.882,0,0,1,1.318,1.385,3.6,3.6,0,0,1,.384,1.718,3.882,3.882,0,0,1-.651,2.219,4.18,4.18,0,0,1-1.868,1.485,7.643,7.643,0,0,1-3.019.534,11.49,11.49,0,0,1-2.269-.217,6.729,6.729,0,0,1-1.7-.534.334.334,0,0,1-.184-.317v-2.9a.182.182,0,0,1,.067-.15.127.127,0,0,1,.15.017,7.141,7.141,0,0,0,2.069.817,7.766,7.766,0,0,0,1.968.25,3.184,3.184,0,0,0,1.385-.234.776.776,0,0,0,.45-.7.884.884,0,0,0-.4-.667,7.075,7.075,0,0,0-1.635-.784,10.206,10.206,0,0,1-2.369-1.2,4.319,4.319,0,0,1-1.268-1.418,3.58,3.58,0,0,1-.384-1.7,3.924,3.924,0,0,1,.567-2.018,4.112,4.112,0,0,1,1.752-1.535A6.469,6.469,0,0,1,145.6,84.3a14.38,14.38,0,0,1,2.069.15,5.871,5.871,0,0,1,1.435.384.294.294,0,0,1,.167.15.834.834,0,0,1,.033.2V87.9a.205.205,0,0,1-.083.167A.444.444,0,0,1,148.922,88.07Z" transform="translate(-125.901 -80.163)" fill="#31a8ff"/>
            </g>
          </g>
        </g>
      </g>
    </g>
  </g>
</svg>