<svg xmlns="http://www.w3.org/2000/svg" xmlns:xlink="http://www.w3.org/1999/xlink" width="81" height="80" viewBox="0 0 81 80">
  <defs>
    <filter id="Rectangle_70" x="0" y="0" width="81" height="80" filterUnits="userSpaceOnUse">
      <feOffset input="SourceAlpha"/>
      <feGaussianBlur stdDeviation="7" result="blur"/>
      <feFlood flood-color="#b69eff"/>
      <feComposite operator="in" in2="blur"/>
      <feComposite in="SourceGraphic"/>
    </filter>
  </defs>
  <g id="Group_38" data-name="Group 38" transform="translate(927 -2715.613)">
    <g transform="matrix(1, 0, 0, 1, -927, 2715.61)" filter="url(#Rectangle_70)">
      <rect id="Rectangle_70-2" data-name="Rectangle 70" width="39" height="38" rx="7" transform="translate(21 21)" fill="#fff"/>
    </g>
    <g id="Layer_2" data-name="Layer 2" transform="translate(-906.518 2735.982)">
      <g id="Layer_1" data-name="Layer 1" transform="translate(0 0)">
        <g id="Layer_2-2" data-name="Layer 2">
          <g id="Surfaces">
            <g id="UI_UX_Surface" data-name="UI UX Surface">
              <g id="Outline_no_shadow" data-name="Outline no shadow">
                <path id="Path_517" data-name="Path 517" d="M7.09,0H32.946a7.083,7.083,0,0,1,7.09,7.09V31.945a7.083,7.083,0,0,1-7.09,7.09H7.09A7.083,7.083,0,0,1,0,31.945V7.09A7.083,7.083,0,0,1,7.09,0Z" transform="translate(0 0)" fill="#470137"/>
              </g>
            </g>
          </g>
          <g id="Outlined_Mnemonics_Logos" data-name="Outlined Mnemonics Logos" transform="translate(5.832 8.556)">
            <g id="Xd">
              <path id="Path_518" data-name="Path 518" d="M50.182,60.245l-5,8.257,5.338,8.758a.287.287,0,0,1,.033.2c-.017.067-.083.017-.184.033h-3.82c-.267,0-.45-.017-.567-.184-.35-.7-.717-1.385-1.068-2.085s-.734-1.385-1.134-2.1-.8-1.435-1.2-2.169h-.033c-.35.717-.734,1.435-1.118,2.152s-.767,1.435-1.134,2.135-.767,1.418-1.151,2.1c-.067.167-.2.183-.384.183h-3.67c-.067,0-.117.033-.117-.05A.232.232,0,0,1,35,77.294l5.188-8.508-5.055-8.558c-.05-.067-.067-.133-.033-.167a.194.194,0,0,1,.167-.067h3.787a.984.984,0,0,1,.234.033.474.474,0,0,1,.167.15c.317.717.684,1.435,1.068,2.152s.784,1.418,1.2,2.119.767,1.4,1.118,2.119h.033c.35-.734.717-1.451,1.084-2.152s.751-1.4,1.134-2.1.751-1.418,1.118-2.1a.284.284,0,0,1,.1-.167.319.319,0,0,1,.217-.033h3.52a.153.153,0,0,1,.183.117C50.249,60.145,50.216,60.212,50.182,60.245Z" transform="translate(-34.962 -58.542)" fill="#ff61f6"/>
              <path id="Path_519" data-name="Path 519" d="M137.32,70.594a8.294,8.294,0,0,1-3.587-.751,5.815,5.815,0,0,1-2.519-2.269,7.218,7.218,0,0,1-.917-3.8,6.851,6.851,0,0,1,.917-3.52,6.928,6.928,0,0,1,2.652-2.586,8.533,8.533,0,0,1,4.22-.968,2.98,2.98,0,0,1,.35.017c.15.017.317.017.517.033V51.477c0-.117.05-.184.167-.184h3.386a.15.15,0,0,1,.167.117V67.324c0,.3.017.634.033,1s.05.684.067.968a.27.27,0,0,1-.167.267,12.74,12.74,0,0,1-2.719.8,14.715,14.715,0,0,1-2.569.234Zm1.635-3.336v-7.34a4.267,4.267,0,0,0-.45-.083c-.183-.017-.367-.033-.55-.033a4.112,4.112,0,0,0-1.885.434,3.74,3.74,0,0,0-1.418,1.234,3.7,3.7,0,0,0-.55,2.119,4.649,4.649,0,0,0,.284,1.718,3.26,3.26,0,0,0,.751,1.184,2.883,2.883,0,0,0,1.134.667,4.368,4.368,0,0,0,1.385.217c.25,0,.484-.017.7-.033a1.459,1.459,0,0,0,.6-.083Z" transform="translate(-114.393 -51.292)" fill="#ff61f6"/>
            </g>
          </g>
        </g>
      </g>
    </g>
  </g>
</svg>